<svg width="65" height="65" viewBox="0 0 65 65" fill="none" xmlns="http://www.w3.org/2000/svg">
<g clip-path="url(#clip0_3_51)">
<mask id="mask0_3_51" style="mask-type:luminance" maskUnits="userSpaceOnUse" x="10" y="10" width="45" height="45">
<path d="M10 10H55V55H10V10Z" fill="white"/>
<path fill-rule="evenodd" clip-rule="evenodd" d="M32.5 19.8342L22.0081 26.4423H42.9919L32.5 19.8342ZM32.9621 18.0792C32.824 17.9922 32.6641 17.9461 32.5009 17.9461C32.3377 17.9461 32.1778 17.9922 32.0396 18.0792L18.5483 26.5756C17.8144 27.0377 18.1416 28.1731 19.0104 28.1731H45.9896C46.8585 28.1731 47.1856 27.0377 46.4518 26.5756L32.9621 18.0792ZM18.6539 44.6154C18.6539 44.3859 18.745 44.1658 18.9073 44.0035C19.0696 43.8412 19.2897 43.75 19.5193 43.75H45.4808C45.7103 43.75 45.9304 43.8412 46.0927 44.0035C46.255 44.1658 46.3462 44.3859 46.3462 44.6154C46.3462 44.8449 46.255 45.065 46.0927 45.2273C45.9304 45.3896 45.7103 45.4808 45.4808 45.4808H19.5193C19.2897 45.4808 19.0696 45.3896 18.9073 45.2273C18.745 45.065 18.6539 44.8449 18.6539 44.6154ZM21.25 29.9038C21.4795 29.9038 21.6997 29.995 21.8619 30.1573C22.0242 30.3196 22.1154 30.5397 22.1154 30.7692V41.1538C22.1154 41.3834 22.0242 41.6035 21.8619 41.7658C21.6997 41.9281 21.4795 42.0192 21.25 42.0192C21.0205 42.0192 20.8004 41.9281 20.6381 41.7658C20.4758 41.6035 20.3846 41.3834 20.3846 41.1538V30.7692C20.3846 30.5397 20.4758 30.3196 20.6381 30.1573C20.8004 29.995 21.0205 29.9038 21.25 29.9038ZM26.4423 29.9038C26.6718 29.9038 26.892 29.995 27.0543 30.1573C27.2165 30.3196 27.3077 30.5397 27.3077 30.7692V41.1538C27.3077 41.3834 27.2165 41.6035 27.0543 41.7658C26.892 41.9281 26.6718 42.0192 26.4423 42.0192C26.2128 42.0192 25.9927 41.9281 25.8304 41.7658C25.6681 41.6035 25.5769 41.3834 25.5769 41.1538V30.7692C25.5769 30.5397 25.6681 30.3196 25.8304 30.1573C25.9927 29.995 26.2128 29.9038 26.4423 29.9038ZM31.6346 29.9038C31.8642 29.9038 32.0843 29.995 32.2466 30.1573C32.4089 30.3196 32.5 30.5397 32.5 30.7692V41.1538C32.5 41.3834 32.4089 41.6035 32.2466 41.7658C32.0843 41.9281 31.8642 42.0192 31.6346 42.0192C31.4051 42.0192 31.185 41.9281 31.0227 41.7658C30.8604 41.6035 30.7693 41.3834 30.7693 41.1538V30.7692C30.7693 30.5397 30.8604 30.3196 31.0227 30.1573C31.185 29.995 31.4051 29.9038 31.6346 29.9038ZM36.8269 29.9038C37.0565 29.9038 37.2766 29.995 37.4389 30.1573C37.6012 30.3196 37.6923 30.5397 37.6923 30.7692V41.1538C37.6923 41.3834 37.6012 41.6035 37.4389 41.7658C37.2766 41.9281 37.0565 42.0192 36.8269 42.0192C36.5974 42.0192 36.3773 41.9281 36.215 41.7658C36.0527 41.6035 35.9616 41.3834 35.9616 41.1538V30.7692C35.9616 30.5397 36.0527 30.3196 36.215 30.1573C36.3773 29.995 36.5974 29.9038 36.8269 29.9038ZM42.0193 29.9038C42.2488 29.9038 42.4689 29.995 42.6312 30.1573C42.7935 30.3196 42.8846 30.5397 42.8846 30.7692V41.1538C42.8846 41.3834 42.7935 41.6035 42.6312 41.7658C42.4689 41.9281 42.2488 42.0192 42.0193 42.0192C41.7897 42.0192 41.5696 41.9281 41.4073 41.7658C41.245 41.6035 41.1539 41.3834 41.1539 41.1538V30.7692C41.1539 30.5397 41.245 30.3196 41.4073 30.1573C41.5696 29.995 41.7897 29.9038 42.0193 29.9038Z" fill="black"/>
</mask>
<g mask="url(#mask0_3_51)">
<path d="M32.5 55C44.9264 55 55 44.9264 55 32.5C55 20.0736 44.9264 10 32.5 10C20.0736 10 10 20.0736 10 32.5C10 44.9264 20.0736 55 32.5 55Z" fill="white"/>
</g>
</g>
<defs>
<clipPath id="clip0_3_51">
<rect width="45" height="45" fill="white" transform="translate(10 10)"/>
</clipPath>
</defs>
</svg>
