<svg width="34" height="34" viewBox="0 0 34 34" fill="none" xmlns="http://www.w3.org/2000/svg">
<path fill-rule="evenodd" clip-rule="evenodd" d="M28.0501 14.4217C27.6109 9.91673 24.9476 2.83337 16.7168 2.83337C8.48591 2.83337 5.82255 9.91673 5.38341 14.4217C3.84278 15.0064 2.82657 16.4856 2.83341 18.1334V20.1167C2.83341 22.3075 4.60938 24.0834 6.80005 24.0834C8.9908 24.0834 10.7668 22.3074 10.7668 20.1167V18.1334C10.7596 16.5211 9.78076 15.0724 8.28755 14.4642C8.57091 11.8575 9.95926 5.66673 16.7168 5.66673C23.4743 5.66673 24.8484 11.8575 25.1318 14.4642C23.6416 15.0737 22.6677 16.5234 22.6668 18.1334V20.1167C22.6698 20.8631 22.8826 21.5936 23.2809 22.2249C23.6792 22.8561 24.2469 23.3627 24.9193 23.6867C24.3243 24.8059 22.8084 26.3217 19.0826 26.775C18.3378 25.6441 16.8969 25.1983 15.6435 25.711C14.3902 26.2236 13.6748 27.5516 13.9362 28.8802C14.1976 30.2089 15.3626 31.1667 16.7168 31.1667C17.2415 31.1638 17.755 31.0152 18.2003 30.7376C18.6455 30.4599 19.0049 30.0641 19.2384 29.5942C25.3159 28.9 27.2568 25.7692 27.8659 23.9275C29.5139 23.3937 30.6223 21.8489 30.6001 20.1167V18.1334C30.6069 16.4856 29.5907 15.0064 28.0501 14.4217ZM7.93341 20.1167C7.93341 20.7426 7.426 21.25 6.80005 21.25C6.17411 21.25 5.66676 20.7427 5.66676 20.1167V18.1334C5.66562 17.9838 5.69409 17.8355 5.75053 17.697C5.80697 17.5585 5.89027 17.4325 5.99562 17.3264C6.10097 17.2202 6.2263 17.1359 6.36437 17.0784C6.50244 17.0209 6.65052 16.9913 6.80009 16.9913C6.94965 16.9913 7.09774 17.0209 7.23581 17.0784C7.37388 17.1359 7.4992 17.2202 7.60455 17.3264C7.7099 17.4325 7.7932 17.5585 7.84964 17.697C7.90608 17.8355 7.93455 17.9838 7.93341 18.1334V20.1167ZM25.5001 18.1334C25.5001 17.5074 26.0075 17 26.6334 17C27.2594 17 27.7668 17.5074 27.7668 18.1334V20.1167C27.7668 20.7426 27.2594 21.25 26.6334 21.25C26.0075 21.25 25.5001 20.7427 25.5001 20.1167V18.1334Z" fill="white"/>
</svg>
