<svg width="30" height="30" viewBox="0 0 30 30" fill="none" xmlns="http://www.w3.org/2000/svg">
<path d="M24.8 25.3578L22.7 23.2086M24.8 5.29843L22.7 7.44765M5.2 25.3578L7.3 23.2086M5.2 5.29843L7.3 7.44765M1 15.3281H3.8M26.2 15.3281H29M15 3.86562V1" stroke="white" stroke-width="1.5" stroke-linecap="round"/>
<path d="M12.3694 18.7153C11.9794 18.3162 11.67 17.8423 11.4589 17.3207C11.2478 16.7992 11.1392 16.2402 11.1392 15.6756C11.1392 15.1111 11.2478 14.5521 11.4589 14.0306C11.67 13.509 11.9794 13.0351 12.3694 12.6359C12.7595 12.2367 13.2225 11.9201 13.7321 11.7041C14.2417 11.488 14.7879 11.3768 15.3395 11.3768C15.8911 11.3768 16.4373 11.488 16.9469 11.7041C17.4565 11.9201 17.9196 12.2367 18.3096 12.6359C18.934 13.275 19.3694 14.6003 19.669 15.9973C20.1184 18.0878 20.3438 19.1323 19.5304 19.9662C18.7184 20.7972 17.6964 20.568 15.6538 20.1066C14.2888 19.8 12.9938 19.3544 12.3694 18.7153Z" stroke="white" stroke-width="1.5"/>
<path d="M10.8 29C5.1202 27.1746 1 21.7442 1 15.3281C1 7.4147 7.2678 1 15 1C22.7322 1 29 7.4147 29 15.3281C29 21.7442 24.8798 27.1746 19.2 29" stroke="white" stroke-width="1.5" stroke-linecap="round"/>
</svg>
