<svg width="36" height="36" viewBox="0 0 36 36" fill="none" xmlns="http://www.w3.org/2000/svg">
<path d="M17.997 3C13.485 3 10.56 6.0285 7.10096 7.1325C5.69396 7.5825 4.99046 7.806 4.70546 8.1225C4.42046 8.4375 4.33796 8.901 4.17146 9.825C2.38646 19.719 6.28646 28.866 15.5865 32.427C16.584 32.8095 17.0835 33 18.0015 33C18.9195 33 19.4205 32.808 20.4195 32.4255C29.718 28.866 33.6135 19.719 31.8285 9.825C31.662 8.901 31.578 8.4375 31.293 8.121C31.008 7.8045 30.306 7.581 28.899 7.1325C25.4385 6.0285 22.509 3 17.997 3Z" stroke="white" stroke-width="1.5" stroke-linecap="round" stroke-linejoin="round"/>
<path d="M15 18.75C15 18.75 15.75 18.75 16.5 20.25C16.5 20.25 18.882 16.5 21 15.75" stroke="white" stroke-width="1.5" stroke-linecap="round" stroke-linejoin="round"/>
<path d="M25.5 18C25.5 19.9891 24.7098 21.8968 23.3033 23.3033C21.8968 24.7098 19.9891 25.5 18 25.5C16.0109 25.5 14.1032 24.7098 12.6967 23.3033C11.2902 21.8968 10.5 19.9891 10.5 18C10.5 16.0109 11.2902 14.1032 12.6967 12.6967C14.1032 11.2902 16.0109 10.5 18 10.5C19.9891 10.5 21.8968 11.2902 23.3033 12.6967C24.7098 14.1032 25.5 16.0109 25.5 18Z" stroke="white" stroke-width="1.5" stroke-linecap="round" stroke-linejoin="round"/>
</svg>
