<svg width="29" height="40" viewBox="0 0 29 40" fill="none" xmlns="http://www.w3.org/2000/svg">
<path d="M14.5 27.6C10.9196 27.6 7.4858 26.1988 4.95406 23.7045C2.42232 21.2103 1 17.8274 1 14.3C1 10.7726 2.42232 7.38971 4.95406 4.89548C7.4858 2.40125 10.9196 1 14.5 1C18.0804 1 21.5142 2.40125 24.0459 4.89548C26.5777 7.38971 28 10.7726 28 14.3C28 17.8274 26.5777 21.2103 24.0459 23.7045C21.5142 26.1988 18.0804 27.6 14.5 27.6ZM14.5 27.6V39M14.5 34.25C14.5 34.25 16.4286 31.4 20.2857 31.4C24.1429 31.4 26.0714 34.25 26.0714 34.25C26.0714 34.25 24.1429 37.1 20.2857 37.1C16.4286 37.1 14.5 34.25 14.5 34.25ZM14.5 34.25C14.5 34.25 12.5714 37.1 8.71429 37.1C4.85714 37.1 2.92857 34.25 2.92857 34.25C2.92857 34.25 4.85714 31.4 8.71429 31.4C12.5714 31.4 14.5 34.25 14.5 34.25Z" stroke="white" stroke-width="1.5" stroke-linecap="round" stroke-linejoin="round"/>
<path d="M11.4876 19.3674V9.23277M14.5 9.23277V6.70007M14.5 21.9001V19.3674M11.4876 14.3001H17.5124M17.5124 14.3001C18.5114 14.3001 19.3214 15.1513 19.3214 16.2001V17.4674C19.3214 18.5162 18.5114 19.3674 17.5144 19.3674H9.67859M17.5124 14.3001C18.5095 14.3001 19.3214 13.4489 19.3214 12.4001V11.1328C19.3214 10.084 18.5114 9.23277 17.5144 9.23277H9.67859" stroke="white" stroke-width="1.5" stroke-linecap="round" stroke-linejoin="round"/>
</svg>
