<svg width="350" height="308" viewBox="0 0 350 308" fill="none" xmlns="http://www.w3.org/2000/svg">
<rect width="350" height="290" rx="50" fill="url(#paint0_linear_13_211)"/>
<path d="M80.296 31L77.416 26.92L79.448 25.72L83.24 31H80.296ZM74.2 31V22.392H76.696V31H74.2ZM75.96 27.736V25.736H78.968V27.736H75.96ZM79.688 26.984L77.352 26.728L80.376 22.392H83.032L79.688 26.984ZM83.3776 30.984L83.5056 28.936C83.5696 28.9467 83.6336 28.9573 83.6976 28.968C83.7616 28.968 83.8203 28.968 83.8736 28.968C84.1723 28.968 84.407 28.8827 84.5776 28.712C84.7483 28.5413 84.8763 28.312 84.9616 28.024C85.047 27.7253 85.1056 27.3893 85.1376 27.016C85.1803 26.6427 85.2123 26.2533 85.2336 25.848L85.3616 22.392H92.7216V31H90.2256V23.832L90.7856 24.44H87.0096L87.5376 23.8L87.4256 25.96C87.3936 26.728 87.3296 27.432 87.2336 28.072C87.1483 28.712 87.0043 29.2667 86.8016 29.736C86.599 30.1947 86.327 30.552 85.9856 30.808C85.6443 31.0533 85.207 31.176 84.6736 31.176C84.4816 31.176 84.279 31.16 84.0656 31.128C83.8523 31.096 83.623 31.048 83.3776 30.984ZM95.1059 31V22.392H97.6019V31H95.1059ZM96.3539 21.192C95.8952 21.192 95.5219 21.0587 95.2339 20.792C94.9459 20.5253 94.8019 20.1947 94.8019 19.8C94.8019 19.4053 94.9459 19.0747 95.2339 18.808C95.5219 18.5413 95.8952 18.408 96.3539 18.408C96.8125 18.408 97.1859 18.536 97.4739 18.792C97.7619 19.0373 97.9059 19.3573 97.9059 19.752C97.9059 20.168 97.7619 20.5147 97.4739 20.792C97.1965 21.0587 96.8232 21.192 96.3539 21.192ZM105.341 25.88V27.592H100.829V25.88H105.341ZM104.141 31.16C103.202 31.16 102.37 30.9733 101.645 30.6C100.92 30.216 100.349 29.688 99.9329 29.016C99.5169 28.3333 99.3089 27.56 99.3089 26.696C99.3089 25.8213 99.5169 25.048 99.9329 24.376C100.349 23.704 100.92 23.1813 101.645 22.808C102.37 22.424 103.202 22.232 104.141 22.232C104.973 22.232 105.714 22.3707 106.365 22.648C107.026 22.9147 107.581 23.304 108.029 23.816L106.589 25.16C106.28 24.8293 105.928 24.5787 105.533 24.408C105.138 24.2373 104.706 24.152 104.237 24.152C103.725 24.152 103.266 24.2587 102.861 24.472C102.466 24.6853 102.157 24.984 101.933 25.368C101.72 25.752 101.613 26.1947 101.613 26.696C101.613 27.208 101.72 27.656 101.933 28.04C102.157 28.424 102.466 28.7227 102.861 28.936C103.266 29.1493 103.725 29.256 104.237 29.256C104.706 29.256 105.138 29.1707 105.533 29C105.928 28.8187 106.28 28.5627 106.589 28.232L108.029 29.56C107.581 30.0827 107.026 30.4827 106.365 30.76C105.714 31.0267 104.973 31.16 104.141 31.16ZM109.466 31V22.392H111.946V25.752H115.69V22.392H118.186V31H115.69V27.784H111.946V31H109.466ZM122.415 31V23.864L122.975 24.44H119.503V22.392H127.807V24.44H124.335L124.895 23.864V31H122.415ZM129.138 31V22.392H131.618V27.512L135.81 22.392H138.098V31H135.618V25.88L131.442 31H129.138Z" fill="white"/>
<path d="M77.384 55.128C76.5947 55.128 75.8267 55.0053 75.08 54.76C74.344 54.5147 73.7413 54.184 73.272 53.768L74.008 52.504C74.3813 52.856 74.8667 53.144 75.464 53.368C76.0613 53.592 76.696 53.704 77.368 53.704C78.2213 53.704 78.8773 53.5227 79.336 53.16C79.7947 52.7973 80.024 52.312 80.024 51.704C80.024 51.288 79.9227 50.9253 79.72 50.616C79.5173 50.3067 79.1653 50.072 78.664 49.912C78.1733 49.7413 77.496 49.656 76.632 49.656H74.088L74.68 43.8H81V45.192H75.272L76.104 44.408L75.64 49.032L74.808 48.264H76.968C78.088 48.264 78.9893 48.408 79.672 48.696C80.3547 48.984 80.8507 49.384 81.16 49.896C81.4693 50.3973 81.624 50.9787 81.624 51.64C81.624 52.28 81.4693 52.8667 81.16 53.4C80.8507 53.9227 80.3813 54.344 79.752 54.664C79.1333 54.9733 78.344 55.128 77.384 55.128ZM87.5315 55.128C86.6568 55.128 85.8728 54.904 85.1795 54.456C84.4968 54.008 83.9528 53.3573 83.5475 52.504C83.1528 51.6507 82.9555 50.616 82.9555 49.4C82.9555 48.184 83.1528 47.1493 83.5475 46.296C83.9528 45.4427 84.4968 44.792 85.1795 44.344C85.8728 43.896 86.6568 43.672 87.5315 43.672C88.3955 43.672 89.1742 43.896 89.8675 44.344C90.5608 44.792 91.1048 45.4427 91.4995 46.296C91.8942 47.1493 92.0915 48.184 92.0915 49.4C92.0915 50.616 91.8942 51.6507 91.4995 52.504C91.1048 53.3573 90.5608 54.008 89.8675 54.456C89.1742 54.904 88.3955 55.128 87.5315 55.128ZM87.5315 53.704C88.1182 53.704 88.6302 53.544 89.0675 53.224C89.5155 52.904 89.8622 52.424 90.1075 51.784C90.3635 51.144 90.4915 50.3493 90.4915 49.4C90.4915 48.4507 90.3635 47.656 90.1075 47.016C89.8622 46.376 89.5155 45.896 89.0675 45.576C88.6302 45.256 88.1182 45.096 87.5315 45.096C86.9448 45.096 86.4275 45.256 85.9795 45.576C85.5315 45.896 85.1795 46.376 84.9235 47.016C84.6782 47.656 84.5555 48.4507 84.5555 49.4C84.5555 50.3493 84.6782 51.144 84.9235 51.784C85.1795 52.424 85.5315 52.904 85.9795 53.224C86.4275 53.544 86.9448 53.704 87.5315 53.704ZM95.5634 52.952L95.5954 50.984L100.475 46.52H102.331L98.5874 50.2L97.7554 50.904L95.5634 52.952ZM94.3154 55V43.128H95.8514V55H94.3154ZM100.795 55L97.4674 50.872L98.4594 49.64L102.683 55H100.795ZM106.343 52.904V45.896H107.687V52.904H106.343ZM103.431 50.04V48.776H110.599V50.04H103.431ZM123.601 55L120.321 50.872L121.585 50.104L125.409 55H123.601ZM117.457 55V46.52H118.993V55H117.457ZM118.529 51.416V50.104H121.329V51.416H118.529ZM121.713 50.936L120.289 50.744L123.537 46.52H125.185L121.713 50.936ZM125.611 54.984L125.707 53.688C125.782 53.6987 125.851 53.7093 125.915 53.72C125.979 53.7307 126.038 53.736 126.091 53.736C126.433 53.736 126.699 53.6187 126.891 53.384C127.094 53.1493 127.243 52.84 127.339 52.456C127.435 52.0613 127.505 51.6187 127.547 51.128C127.59 50.6373 127.622 50.1467 127.643 49.656L127.787 46.52H134.299V55H132.763V47.416L133.131 47.864H128.779L129.131 47.4L129.019 49.752C128.987 50.4987 128.929 51.1973 128.843 51.848C128.758 52.4987 128.625 53.0693 128.443 53.56C128.273 54.0507 128.033 54.4347 127.723 54.712C127.425 54.9893 127.035 55.128 126.555 55.128C126.417 55.128 126.267 55.112 126.107 55.08C125.958 55.0587 125.793 55.0267 125.611 54.984ZM137.269 55V46.52H138.805V55H137.269ZM138.037 44.888C137.739 44.888 137.488 44.792 137.285 44.6C137.093 44.408 136.997 44.1733 136.997 43.896C136.997 43.608 137.093 43.368 137.285 43.176C137.488 42.984 137.739 42.888 138.037 42.888C138.336 42.888 138.581 42.984 138.773 43.176C138.976 43.3573 139.077 43.5867 139.077 43.864C139.077 44.152 138.981 44.3973 138.789 44.6C138.597 44.792 138.347 44.888 138.037 44.888ZM146.729 50.248V51.4H141.961V50.248H146.729ZM145.593 55.096C144.707 55.096 143.918 54.9147 143.225 54.552C142.542 54.1787 142.003 53.6613 141.609 53C141.214 52.3387 141.017 51.592 141.017 50.76C141.017 49.9173 141.214 49.1707 141.609 48.52C142.003 47.8693 142.542 47.3573 143.225 46.984C143.918 46.6 144.707 46.408 145.593 46.408C146.329 46.408 147.001 46.5253 147.609 46.76C148.217 46.9947 148.729 47.3413 149.145 47.8L148.249 48.68C147.897 48.3387 147.502 48.088 147.065 47.928C146.627 47.7573 146.153 47.672 145.641 47.672C145.033 47.672 144.483 47.8053 143.993 48.072C143.513 48.3387 143.134 48.7067 142.857 49.176C142.579 49.6347 142.441 50.1627 142.441 50.76C142.441 51.3573 142.579 51.8907 142.857 52.36C143.134 52.8293 143.513 53.1973 143.993 53.464C144.483 53.72 145.033 53.848 145.641 53.848C146.153 53.848 146.627 53.768 147.065 53.608C147.502 53.4373 147.897 53.176 148.249 52.824L149.145 53.72C148.729 54.168 148.217 54.5093 147.609 54.744C147.001 54.9787 146.329 55.096 145.593 55.096ZM151.035 55V46.52H152.571V50.12H157.403V46.52H158.939V55H157.403V51.448H152.571V55H151.035ZM163.606 55V47.464L163.99 47.864H160.502V46.52H168.246V47.864H164.774L165.141 47.464V55H163.606ZM169.816 55V46.52H171.352V55H169.816ZM170.584 44.888C170.285 44.888 170.035 44.792 169.832 44.6C169.64 44.408 169.544 44.1733 169.544 43.896C169.544 43.608 169.64 43.368 169.832 43.176C170.035 42.984 170.285 42.888 170.584 42.888C170.883 42.888 171.128 42.984 171.32 43.176C171.523 43.3573 171.624 43.5867 171.624 43.864C171.624 44.152 171.528 44.3973 171.336 44.6C171.144 44.792 170.893 44.888 170.584 44.888ZM174.347 55V46.52H178.283C179.275 46.52 180.054 46.712 180.619 47.096C181.195 47.4693 181.483 48.0027 181.483 48.696C181.483 49.3893 181.211 49.928 180.667 50.312C180.134 50.6853 179.425 50.872 178.539 50.872L178.779 50.456C179.793 50.456 180.545 50.6427 181.035 51.016C181.526 51.3893 181.771 51.9387 181.771 52.664C181.771 53.4 181.494 53.976 180.939 54.392C180.395 54.7973 179.558 55 178.427 55H174.347ZM175.851 53.816H178.315C178.955 53.816 179.435 53.72 179.755 53.528C180.075 53.3253 180.235 53.0053 180.235 52.568C180.235 52.12 180.086 51.7947 179.787 51.592C179.499 51.3787 179.041 51.272 178.411 51.272H175.851V53.816ZM175.851 50.168H178.155C178.742 50.168 179.185 50.0613 179.483 49.848C179.793 49.624 179.947 49.3147 179.947 48.92C179.947 48.5147 179.793 48.2107 179.483 48.008C179.185 47.8053 178.742 47.704 178.155 47.704H175.851V50.168Z" fill="white"/>
<path d="M43 28.5C43 27.9696 43.2107 27.4609 43.5858 27.0858C43.9609 26.7107 44.4696 26.5 45 26.5H51.5C52.0304 26.5 52.5391 26.7107 52.9142 27.0858C53.2893 27.4609 53.5 27.9696 53.5 28.5C53.5 28.5 53.5 32.5 48.25 32.5C43 32.5 43 28.5 43 28.5Z" fill="url(#paint1_linear_13_211)"/>
<path d="M43 28.5C43 27.9696 43.2107 27.4609 43.5858 27.0858C43.9609 26.7107 44.4696 26.5 45 26.5H51.5C52.0304 26.5 52.5391 26.7107 52.9142 27.0858C53.2893 27.4609 53.5 27.9696 53.5 28.5C53.5 28.5 53.5 32.5 48.25 32.5C43 32.5 43 28.5 43 28.5Z" fill="url(#paint2_linear_13_211)"/>
<path d="M43 28.5C43 27.9696 43.2107 27.4609 43.5858 27.0858C43.9609 26.7107 44.4696 26.5 45 26.5H51.5C52.0304 26.5 52.5391 26.7107 52.9142 27.0858C53.2893 27.4609 53.5 27.9696 53.5 28.5C53.5 28.5 53.5 32.5 48.25 32.5C43 32.5 43 28.5 43 28.5Z" fill="url(#paint3_radial_13_211)" fill-opacity="0.5"/>
<path d="M56 25.5C56.663 25.5 57.2989 25.2366 57.7678 24.7678C58.2366 24.2989 58.5 23.663 58.5 23C58.5 22.337 58.2366 21.7011 57.7678 21.2322C57.2989 20.7634 56.663 20.5 56 20.5C55.337 20.5 54.7011 20.7634 54.2322 21.2322C53.7634 21.7011 53.5 22.337 53.5 23C53.5 23.663 53.7634 24.2989 54.2322 24.7678C54.7011 25.2366 55.337 25.5 56 25.5Z" fill="url(#paint4_linear_13_211)"/>
<path d="M48.25 25.5C49.112 25.5 49.9386 25.1576 50.5481 24.5481C51.1576 23.9386 51.5 23.112 51.5 22.25C51.5 21.388 51.1576 20.5614 50.5481 19.9519C49.9386 19.3424 49.112 19 48.25 19C47.388 19 46.5614 19.3424 45.9519 19.9519C45.3424 20.5614 45 21.388 45 22.25C45 23.112 45.3424 23.9386 45.9519 24.5481C46.5614 25.1576 47.388 25.5 48.25 25.5Z" fill="url(#paint5_linear_13_211)"/>
<path d="M60.5 31C60.5 29.8065 60.0259 28.6619 59.182 27.818C58.3381 26.9741 57.1935 26.5 56 26.5C54.8065 26.5 53.6619 26.9741 52.818 27.818C51.9741 28.6619 51.5 29.8065 51.5 31C51.5 32.1935 51.9741 33.3381 52.818 34.182C53.6619 35.0259 54.8065 35.5 56 35.5C57.1935 35.5 58.3381 35.0259 59.182 34.182C60.0259 33.3381 60.5 32.1935 60.5 31Z" fill="url(#paint6_linear_13_211)"/>
<path fill-rule="evenodd" clip-rule="evenodd" d="M56 28.5C56.1326 28.5 56.2598 28.5527 56.3536 28.6464C56.4473 28.7402 56.5 28.8674 56.5 29V30.5H58C58.1326 30.5 58.2598 30.5527 58.3536 30.6464C58.4473 30.7402 58.5 30.8674 58.5 31C58.5 31.1326 58.4473 31.2598 58.3536 31.3536C58.2598 31.4473 58.1326 31.5 58 31.5H56.5V33C56.5 33.1326 56.4473 33.2598 56.3536 33.3536C56.2598 33.4473 56.1326 33.5 56 33.5C55.8674 33.5 55.7402 33.4473 55.6464 33.3536C55.5527 33.2598 55.5 33.1326 55.5 33V31.5H54C53.8674 31.5 53.7402 31.4473 53.6464 31.3536C53.5527 31.2598 53.5 31.1326 53.5 31C53.5 30.8674 53.5527 30.7402 53.6464 30.6464C53.7402 30.5527 53.8674 30.5 54 30.5H55.5V29C55.5 28.8674 55.5527 28.7402 55.6464 28.6464C55.7402 28.5527 55.8674 28.5 56 28.5Z" fill="url(#paint7_linear_13_211)"/>
<rect y="76" width="350" height="231" rx="50" fill="url(#paint8_linear_13_211)"/>
<path d="M79.12 104.88V99.44H76.304L76.256 100.544C76.2347 101.003 76.208 101.44 76.176 101.856C76.144 102.272 76.08 102.651 75.984 102.992C75.8987 103.323 75.7707 103.605 75.6 103.84C75.4293 104.064 75.2 104.219 74.912 104.304L72.448 103.952C72.7573 103.952 73.008 103.861 73.2 103.68C73.392 103.488 73.5413 103.227 73.648 102.896C73.7547 102.555 73.8347 102.171 73.888 101.744C73.9413 101.307 73.9787 100.848 74 100.368L74.112 97.392H81.616V104.88H79.12ZM72.16 107.856V103.952H82.848V107.856H80.528V106H74.48V107.856H72.16ZM88.4508 106.128C87.5334 106.128 86.7174 105.936 86.0028 105.552C85.2988 105.168 84.7388 104.645 84.3228 103.984C83.9174 103.312 83.7148 102.549 83.7148 101.696C83.7148 100.832 83.9174 100.069 84.3228 99.408C84.7388 98.736 85.2988 98.2133 86.0028 97.84C86.7174 97.456 87.5334 97.264 88.4508 97.264C89.3574 97.264 90.1681 97.456 90.8828 97.84C91.5974 98.2133 92.1574 98.7307 92.5628 99.392C92.9681 100.053 93.1708 100.821 93.1708 101.696C93.1708 102.549 92.9681 103.312 92.5628 103.984C92.1574 104.645 91.5974 105.168 90.8828 105.552C90.1681 105.936 89.3574 106.128 88.4508 106.128ZM88.4508 104.08C88.8668 104.08 89.2401 103.984 89.5708 103.792C89.9014 103.6 90.1628 103.328 90.3548 102.976C90.5468 102.613 90.6428 102.187 90.6428 101.696C90.6428 101.195 90.5468 100.768 90.3548 100.416C90.1628 100.064 89.9014 99.792 89.5708 99.6C89.2401 99.408 88.8668 99.312 88.4508 99.312C88.0348 99.312 87.6614 99.408 87.3307 99.6C87.0001 99.792 86.7334 100.064 86.5308 100.416C86.3388 100.768 86.2428 101.195 86.2428 101.696C86.2428 102.187 86.3388 102.613 86.5308 102.976C86.7334 103.328 87.0001 103.6 87.3307 103.792C87.6614 103.984 88.0348 104.08 88.4508 104.08ZM98.9835 106.128C98.0555 106.128 97.2288 105.941 96.5035 105.568C95.7782 105.184 95.2075 104.656 94.7915 103.984C94.3862 103.312 94.1835 102.549 94.1835 101.696C94.1835 100.832 94.3862 100.069 94.7915 99.408C95.2075 98.736 95.7782 98.2133 96.5035 97.84C97.2288 97.456 98.0555 97.264 98.9835 97.264C99.8902 97.264 100.68 97.456 101.352 97.84C102.024 98.2133 102.52 98.752 102.84 99.456L100.904 100.496C100.68 100.091 100.397 99.792 100.056 99.6C99.7248 99.408 99.3622 99.312 98.9675 99.312C98.5408 99.312 98.1568 99.408 97.8155 99.6C97.4742 99.792 97.2022 100.064 96.9995 100.416C96.8075 100.768 96.7115 101.195 96.7115 101.696C96.7115 102.197 96.8075 102.624 96.9995 102.976C97.2022 103.328 97.4742 103.6 97.8155 103.792C98.1568 103.984 98.5408 104.08 98.9675 104.08C99.3622 104.08 99.7248 103.989 100.056 103.808C100.397 103.616 100.68 103.312 100.904 102.896L102.84 103.952C102.52 104.645 102.024 105.184 101.352 105.568C100.68 105.941 99.8902 106.128 98.9835 106.128ZM104.356 106V97.392H108.756C109.834 97.392 110.676 97.5893 111.284 97.984C111.892 98.368 112.196 98.912 112.196 99.616C112.196 100.32 111.908 100.875 111.332 101.28C110.767 101.675 110.015 101.872 109.076 101.872L109.332 101.296C110.378 101.296 111.156 101.488 111.668 101.872C112.191 102.256 112.452 102.816 112.452 103.552C112.452 104.309 112.164 104.907 111.588 105.344C111.012 105.781 110.132 106 108.948 106H104.356ZM106.644 104.304H108.74C109.199 104.304 109.54 104.229 109.764 104.08C109.999 103.92 110.116 103.68 110.116 103.36C110.116 103.029 110.01 102.789 109.796 102.64C109.583 102.48 109.247 102.4 108.788 102.4H106.644V104.304ZM106.644 100.928H108.532C108.97 100.928 109.295 100.848 109.508 100.688C109.732 100.528 109.844 100.299 109.844 100C109.844 99.6907 109.732 99.4613 109.508 99.312C109.295 99.1627 108.97 99.088 108.532 99.088H106.644V100.928ZM114.293 106V97.392H116.789V106H114.293ZM115.541 96.192C115.083 96.192 114.709 96.0587 114.421 95.792C114.133 95.5253 113.989 95.1947 113.989 94.8C113.989 94.4053 114.133 94.0747 114.421 93.808C114.709 93.5413 115.083 93.408 115.541 93.408C116 93.408 116.373 93.536 116.661 93.792C116.949 94.0373 117.093 94.3573 117.093 94.752C117.093 95.168 116.949 95.5147 116.661 95.792C116.384 96.0587 116.011 96.192 115.541 96.192ZM125.104 104.88V99.44H122.288L122.24 100.544C122.219 101.003 122.192 101.44 122.16 101.856C122.128 102.272 122.064 102.651 121.968 102.992C121.883 103.323 121.755 103.605 121.584 103.84C121.414 104.064 121.184 104.219 120.896 104.304L118.432 103.952C118.742 103.952 118.992 103.861 119.184 103.68C119.376 103.488 119.526 103.227 119.632 102.896C119.739 102.555 119.819 102.171 119.872 101.744C119.926 101.307 119.963 100.848 119.984 100.368L120.096 97.392H127.6V104.88H125.104ZM118.144 107.856V103.952H128.832V107.856H126.512V106H120.464V107.856H118.144Z" fill="white"/>
<path d="M74.656 134V123.44L75.344 124.192H72.128V122.8H76.24V134H74.656ZM82.3059 134.128C81.5165 134.128 80.7485 134.005 80.0019 133.76C79.2659 133.515 78.6632 133.184 78.1939 132.768L78.9299 131.504C79.3032 131.856 79.7885 132.144 80.3859 132.368C80.9832 132.592 81.6179 132.704 82.2899 132.704C83.1432 132.704 83.7992 132.523 84.2579 132.16C84.7165 131.797 84.9459 131.312 84.9459 130.704C84.9459 130.288 84.8445 129.925 84.6419 129.616C84.4392 129.307 84.0872 129.072 83.5859 128.912C83.0952 128.741 82.4179 128.656 81.5539 128.656H79.0099L79.6019 122.8H85.9219V124.192H80.1939L81.0259 123.408L80.5619 128.032L79.7299 127.264H81.8899C83.0099 127.264 83.9112 127.408 84.5939 127.696C85.2765 127.984 85.7725 128.384 86.0819 128.896C86.3912 129.397 86.5459 129.979 86.5459 130.64C86.5459 131.28 86.3912 131.867 86.0819 132.4C85.7725 132.923 85.3032 133.344 84.6739 133.664C84.0552 133.973 83.2659 134.128 82.3059 134.128ZM91.0934 131.904V124.896H92.4374V131.904H91.0934ZM88.1814 129.04V127.776H95.3494V129.04H88.1814ZM106.703 134.096C105.999 134.096 105.353 133.936 104.767 133.616C104.191 133.285 103.727 132.8 103.375 132.16C103.033 131.52 102.863 130.72 102.863 129.76C102.863 128.8 103.028 128 103.359 127.36C103.7 126.72 104.159 126.24 104.735 125.92C105.321 125.6 105.977 125.44 106.703 125.44C107.535 125.44 108.271 125.621 108.911 125.984C109.551 126.347 110.057 126.853 110.431 127.504C110.804 128.144 110.991 128.896 110.991 129.76C110.991 130.624 110.804 131.381 110.431 132.032C110.057 132.683 109.551 133.189 108.911 133.552C108.271 133.915 107.535 134.096 106.703 134.096ZM102.207 137.104V125.52H103.679V127.808L103.583 129.776L103.743 131.744V137.104H102.207ZM106.575 132.752C107.119 132.752 107.604 132.629 108.031 132.384C108.468 132.139 108.809 131.792 109.055 131.344C109.311 130.885 109.439 130.357 109.439 129.76C109.439 129.152 109.311 128.629 109.055 128.192C108.809 127.744 108.468 127.397 108.031 127.152C107.604 126.907 107.119 126.784 106.575 126.784C106.041 126.784 105.556 126.907 105.119 127.152C104.692 127.397 104.351 127.744 104.095 128.192C103.849 128.629 103.727 129.152 103.727 129.76C103.727 130.357 103.849 130.885 104.095 131.344C104.351 131.792 104.692 132.139 105.119 132.384C105.556 132.629 106.041 132.752 106.575 132.752ZM116.854 134.096C116.001 134.096 115.244 133.909 114.582 133.536C113.921 133.163 113.398 132.651 113.014 132C112.63 131.339 112.438 130.592 112.438 129.76C112.438 128.917 112.63 128.171 113.014 127.52C113.398 126.869 113.921 126.363 114.582 126C115.244 125.627 116.001 125.44 116.854 125.44C117.697 125.44 118.449 125.627 119.11 126C119.782 126.363 120.305 126.869 120.678 127.52C121.062 128.16 121.254 128.907 121.254 129.76C121.254 130.603 121.062 131.349 120.678 132C120.305 132.651 119.782 133.163 119.11 133.536C118.449 133.909 117.697 134.096 116.854 134.096ZM116.854 132.752C117.398 132.752 117.884 132.629 118.31 132.384C118.748 132.139 119.089 131.792 119.334 131.344C119.58 130.885 119.702 130.357 119.702 129.76C119.702 129.152 119.58 128.629 119.334 128.192C119.089 127.744 118.748 127.397 118.31 127.152C117.884 126.907 117.398 126.784 116.854 126.784C116.31 126.784 115.825 126.907 115.398 127.152C114.972 127.397 114.63 127.744 114.374 128.192C114.118 128.629 113.99 129.152 113.99 129.76C113.99 130.357 114.118 130.885 114.374 131.344C114.63 131.792 114.972 132.139 115.398 132.384C115.825 132.629 116.31 132.752 116.854 132.752ZM129.616 134L126.336 129.872L127.6 129.104L131.424 134H129.616ZM123.472 134V125.52H125.008V134H123.472ZM124.544 130.416V129.104H127.344V130.416H124.544ZM127.728 129.936L126.304 129.744L129.552 125.52H131.2L127.728 129.936ZM133.035 134V125.52H134.571V134H133.035ZM133.803 123.888C133.504 123.888 133.254 123.792 133.051 123.6C132.859 123.408 132.763 123.173 132.763 122.896C132.763 122.608 132.859 122.368 133.051 122.176C133.254 121.984 133.504 121.888 133.803 121.888C134.102 121.888 134.347 121.984 134.539 122.176C134.742 122.357 134.843 122.587 134.843 122.864C134.843 123.152 134.747 123.397 134.555 123.6C134.363 123.792 134.112 123.888 133.803 123.888ZM137.566 134V125.52H141.502C142.494 125.52 143.273 125.712 143.838 126.096C144.414 126.469 144.702 127.003 144.702 127.696C144.702 128.389 144.43 128.928 143.886 129.312C143.353 129.685 142.643 129.872 141.758 129.872L141.998 129.456C143.011 129.456 143.763 129.643 144.254 130.016C144.745 130.389 144.99 130.939 144.99 131.664C144.99 132.4 144.713 132.976 144.158 133.392C143.614 133.797 142.777 134 141.646 134H137.566ZM139.07 132.816H141.534C142.174 132.816 142.654 132.72 142.974 132.528C143.294 132.325 143.454 132.005 143.454 131.568C143.454 131.12 143.305 130.795 143.006 130.592C142.718 130.379 142.259 130.272 141.63 130.272H139.07V132.816ZM139.07 129.168H141.374C141.961 129.168 142.403 129.061 142.702 128.848C143.011 128.624 143.166 128.315 143.166 127.92C143.166 127.515 143.011 127.211 142.702 127.008C142.403 126.805 141.961 126.704 141.374 126.704H139.07V129.168ZM157.483 133.28V126.864H153.803L153.723 128.496C153.702 129.029 153.664 129.547 153.611 130.048C153.568 130.539 153.494 130.992 153.387 131.408C153.291 131.824 153.147 132.165 152.955 132.432C152.763 132.699 152.507 132.864 152.187 132.928L150.667 132.656C150.998 132.667 151.264 132.56 151.467 132.336C151.67 132.101 151.824 131.781 151.931 131.376C152.048 130.971 152.134 130.512 152.187 130C152.24 129.477 152.283 128.939 152.315 128.384L152.443 125.52H159.019V133.28H157.483ZM150.331 135.968V132.656H160.315V135.968H158.875V134H151.787V135.968H150.331ZM165.948 134.096C165.095 134.096 164.337 133.909 163.676 133.536C163.015 133.163 162.492 132.651 162.108 132C161.724 131.339 161.532 130.592 161.532 129.76C161.532 128.917 161.724 128.171 162.108 127.52C162.492 126.869 163.015 126.363 163.676 126C164.337 125.627 165.095 125.44 165.948 125.44C166.791 125.44 167.543 125.627 168.204 126C168.876 126.363 169.399 126.869 169.772 127.52C170.156 128.16 170.348 128.907 170.348 129.76C170.348 130.603 170.156 131.349 169.772 132C169.399 132.651 168.876 133.163 168.204 133.536C167.543 133.909 166.791 134.096 165.948 134.096ZM165.948 132.752C166.492 132.752 166.977 132.629 167.404 132.384C167.841 132.139 168.183 131.792 168.428 131.344C168.673 130.885 168.796 130.357 168.796 129.76C168.796 129.152 168.673 128.629 168.428 128.192C168.183 127.744 167.841 127.397 167.404 127.152C166.977 126.907 166.492 126.784 165.948 126.784C165.404 126.784 164.919 126.907 164.492 127.152C164.065 127.397 163.724 127.744 163.468 128.192C163.212 128.629 163.084 129.152 163.084 129.76C163.084 130.357 163.212 130.885 163.468 131.344C163.724 131.792 164.065 132.139 164.492 132.384C164.919 132.629 165.404 132.752 165.948 132.752ZM176.262 134.096C175.398 134.096 174.625 133.909 173.942 133.536C173.27 133.163 172.742 132.651 172.358 132C171.974 131.349 171.782 130.603 171.782 129.76C171.782 128.917 171.974 128.171 172.358 127.52C172.742 126.869 173.27 126.363 173.942 126C174.625 125.627 175.398 125.44 176.262 125.44C177.03 125.44 177.713 125.595 178.31 125.904C178.918 126.203 179.387 126.651 179.718 127.248L178.55 128C178.273 127.584 177.931 127.28 177.526 127.088C177.131 126.885 176.705 126.784 176.246 126.784C175.691 126.784 175.195 126.907 174.758 127.152C174.321 127.397 173.974 127.744 173.718 128.192C173.462 128.629 173.334 129.152 173.334 129.76C173.334 130.368 173.462 130.896 173.718 131.344C173.974 131.792 174.321 132.139 174.758 132.384C175.195 132.629 175.691 132.752 176.246 132.752C176.705 132.752 177.131 132.656 177.526 132.464C177.931 132.261 178.273 131.952 178.55 131.536L179.718 132.272C179.387 132.859 178.918 133.312 178.31 133.632C177.713 133.941 177.03 134.096 176.262 134.096ZM181.707 134V125.52H185.643C186.635 125.52 187.413 125.712 187.979 126.096C188.555 126.469 188.843 127.003 188.843 127.696C188.843 128.389 188.571 128.928 188.027 129.312C187.493 129.685 186.784 129.872 185.899 129.872L186.139 129.456C187.152 129.456 187.904 129.643 188.395 130.016C188.885 130.389 189.131 130.939 189.131 131.664C189.131 132.4 188.853 132.976 188.299 133.392C187.755 133.797 186.917 134 185.787 134H181.707ZM183.211 132.816H185.675C186.315 132.816 186.795 132.72 187.115 132.528C187.435 132.325 187.595 132.005 187.595 131.568C187.595 131.12 187.445 130.795 187.147 130.592C186.859 130.379 186.4 130.272 185.771 130.272H183.211V132.816ZM183.211 129.168H185.515C186.101 129.168 186.544 129.061 186.843 128.848C187.152 128.624 187.307 128.315 187.307 127.92C187.307 127.515 187.152 127.211 186.843 127.008C186.544 126.805 186.101 126.704 185.515 126.704H183.211V129.168ZM191.535 134V125.52H193.071V134H191.535ZM192.303 123.888C192.004 123.888 191.754 123.792 191.551 123.6C191.359 123.408 191.263 123.173 191.263 122.896C191.263 122.608 191.359 122.368 191.551 122.176C191.754 121.984 192.004 121.888 192.303 121.888C192.602 121.888 192.847 121.984 193.039 122.176C193.242 122.357 193.343 122.587 193.343 122.864C193.343 123.152 193.247 123.397 193.055 123.6C192.863 123.792 192.612 123.888 192.303 123.888ZM201.858 133.28V126.864H198.178L198.098 128.496C198.077 129.029 198.039 129.547 197.986 130.048C197.943 130.539 197.869 130.992 197.762 131.408C197.666 131.824 197.522 132.165 197.33 132.432C197.138 132.699 196.882 132.864 196.562 132.928L195.042 132.656C195.373 132.667 195.639 132.56 195.842 132.336C196.045 132.101 196.199 131.781 196.306 131.376C196.423 130.971 196.509 130.512 196.562 130C196.615 129.477 196.658 128.939 196.69 128.384L196.818 125.52H203.394V133.28H201.858ZM194.706 135.968V132.656H204.69V135.968H203.25V134H196.162V135.968H194.706ZM207.123 137.2C206.718 137.2 206.323 137.131 205.939 136.992C205.555 136.864 205.224 136.672 204.947 136.416L205.603 135.264C205.816 135.467 206.051 135.621 206.307 135.728C206.563 135.835 206.835 135.888 207.123 135.888C207.496 135.888 207.806 135.792 208.051 135.6C208.296 135.408 208.526 135.067 208.739 134.576L209.267 133.408L209.427 133.216L212.755 125.52H214.259L210.147 134.848C209.902 135.445 209.624 135.915 209.315 136.256C209.016 136.597 208.686 136.837 208.323 136.976C207.96 137.125 207.56 137.2 207.123 137.2ZM209.139 134.272L205.267 125.52H206.867L210.163 133.072L209.139 134.272Z" fill="white"/>
<path opacity="0.5" d="M60.3334 101.333H43.6667V108.833C43.6667 109.496 43.9301 110.132 44.399 110.601C44.8678 111.07 45.5037 111.333 46.1667 111.333H57.8334C58.4965 111.333 59.1323 111.07 59.6012 110.601C60.07 110.132 60.3334 109.496 60.3334 108.833V101.333ZM47.8334 99.6667C47.6124 99.6667 47.4004 99.5789 47.2442 99.4226C47.0879 99.2663 47.0001 99.0543 47.0001 98.8333V95.5C47.0001 95.279 47.0879 95.067 47.2442 94.9107C47.4004 94.7545 47.6124 94.6667 47.8334 94.6667C48.0544 94.6667 48.2664 94.7545 48.4227 94.9107C48.579 95.067 48.6667 95.279 48.6667 95.5V98.8333C48.6667 99.0543 48.579 99.2663 48.4227 99.4226C48.2664 99.5789 48.0544 99.6667 47.8334 99.6667ZM56.1667 99.6667C55.9457 99.6667 55.7338 99.5789 55.5775 99.4226C55.4212 99.2663 55.3334 99.0543 55.3334 98.8333V95.5C55.3334 95.279 55.4212 95.067 55.5775 94.9107C55.7338 94.7545 55.9457 94.6667 56.1667 94.6667C56.3878 94.6667 56.5997 94.7545 56.756 94.9107C56.9123 95.067 57.0001 95.279 57.0001 95.5V98.8333C57.0001 99.0543 56.9123 99.2663 56.756 99.4226C56.5997 99.5789 56.3878 99.6667 56.1667 99.6667Z" fill="white"/>
<path d="M57.8334 96.3333H57.0001V98.8333C57.0001 99.0544 56.9123 99.2663 56.756 99.4226C56.5997 99.5789 56.3878 99.6667 56.1667 99.6667C55.9457 99.6667 55.7338 99.5789 55.5775 99.4226C55.4212 99.2663 55.3334 99.0544 55.3334 98.8333V96.3333H48.6667V98.8333C48.6667 99.0544 48.579 99.2663 48.4227 99.4226C48.2664 99.5789 48.0544 99.6667 47.8334 99.6667C47.6124 99.6667 47.4004 99.5789 47.2442 99.4226C47.0879 99.2663 47.0001 99.0544 47.0001 98.8333V96.3333H46.1667C45.5037 96.3333 44.8678 96.5967 44.399 97.0656C43.9301 97.5344 43.6667 98.1703 43.6667 98.8333V101.333H60.3334V98.8333C60.3334 98.1703 60.07 97.5344 59.6012 97.0656C59.1323 96.5967 58.4965 96.3333 57.8334 96.3333Z" fill="white"/>
<rect y="152" width="350" height="151" rx="50" fill="url(#paint9_linear_13_211)"/>
<path d="M75.2 187V178.392H79.6C80.6773 178.392 81.52 178.589 82.128 178.984C82.736 179.368 83.04 179.912 83.04 180.616C83.04 181.32 82.752 181.875 82.176 182.28C81.6107 182.675 80.8587 182.872 79.92 182.872L80.176 182.296C81.2213 182.296 82 182.488 82.512 182.872C83.0347 183.256 83.296 183.816 83.296 184.552C83.296 185.309 83.008 185.907 82.432 186.344C81.856 186.781 80.976 187 79.792 187H75.2ZM77.488 185.304H79.584C80.0427 185.304 80.384 185.229 80.608 185.08C80.8427 184.92 80.96 184.68 80.96 184.36C80.96 184.029 80.8533 183.789 80.64 183.64C80.4267 183.48 80.0907 183.4 79.632 183.4H77.488V185.304ZM77.488 181.928H79.376C79.8133 181.928 80.1387 181.848 80.352 181.688C80.576 181.528 80.688 181.299 80.688 181C80.688 180.691 80.576 180.461 80.352 180.312C80.1387 180.163 79.8133 180.088 79.376 180.088H77.488V181.928ZM85.1371 187V178.392H87.6331V187H85.1371ZM86.3851 177.192C85.9265 177.192 85.5531 177.059 85.2651 176.792C84.9771 176.525 84.8331 176.195 84.8331 175.8C84.8331 175.405 84.9771 175.075 85.2651 174.808C85.5531 174.541 85.9265 174.408 86.3851 174.408C86.8438 174.408 87.2171 174.536 87.5051 174.792C87.7931 175.037 87.9371 175.357 87.9371 175.752C87.9371 176.168 87.7931 176.515 87.5051 176.792C87.2278 177.059 86.8545 177.192 86.3851 177.192ZM95.9481 185.88V180.44H93.1321L93.0841 181.544C93.0628 182.003 93.0361 182.44 93.0041 182.856C92.9721 183.272 92.9081 183.651 92.8121 183.992C92.7268 184.323 92.5988 184.605 92.4281 184.84C92.2575 185.064 92.0281 185.219 91.7401 185.304L89.2761 184.952C89.5855 184.952 89.8361 184.861 90.0281 184.68C90.2201 184.488 90.3695 184.227 90.4761 183.896C90.5828 183.555 90.6628 183.171 90.7161 182.744C90.7695 182.307 90.8068 181.848 90.8281 181.368L90.9401 178.392H98.4441V185.88H95.9481ZM88.9881 188.856V184.952H99.6761V188.856H97.3561V187H91.3081V188.856H88.9881ZM107.167 185.88V180.44H104.351L104.303 181.544C104.282 182.003 104.255 182.44 104.223 182.856C104.191 183.272 104.127 183.651 104.031 183.992C103.946 184.323 103.818 184.605 103.647 184.84C103.476 185.064 103.247 185.219 102.959 185.304L100.495 184.952C100.804 184.952 101.055 184.861 101.247 184.68C101.439 184.488 101.588 184.227 101.695 183.896C101.802 183.555 101.882 183.171 101.935 182.744C101.988 182.307 102.026 181.848 102.047 181.368L102.159 178.392H109.663V185.88H107.167ZM100.207 188.856V184.952H110.895V188.856H108.575V187H102.527V188.856H100.207ZM112.45 187V178.392H114.946V187H112.45ZM113.698 177.192C113.239 177.192 112.866 177.059 112.578 176.792C112.29 176.525 112.146 176.195 112.146 175.8C112.146 175.405 112.29 175.075 112.578 174.808C112.866 174.541 113.239 174.408 113.698 174.408C114.156 174.408 114.53 174.536 114.818 174.792C115.106 175.037 115.25 175.357 115.25 175.752C115.25 176.168 115.106 176.515 114.818 176.792C114.54 177.059 114.167 177.192 113.698 177.192ZM116.253 186.984L116.381 184.936C116.445 184.947 116.509 184.957 116.573 184.968C116.637 184.968 116.695 184.968 116.749 184.968C117.047 184.968 117.282 184.883 117.453 184.712C117.623 184.541 117.751 184.312 117.837 184.024C117.922 183.725 117.981 183.389 118.013 183.016C118.055 182.643 118.087 182.253 118.109 181.848L118.237 178.392H125.597V187H123.101V179.832L123.661 180.44H119.885L120.413 179.8L120.301 181.96C120.269 182.728 120.205 183.432 120.109 184.072C120.023 184.712 119.879 185.267 119.677 185.736C119.474 186.195 119.202 186.552 118.861 186.808C118.519 187.053 118.082 187.176 117.549 187.176C117.357 187.176 117.154 187.16 116.941 187.128C116.727 187.096 116.498 187.048 116.253 186.984ZM132.205 187.128C131.224 187.128 130.36 186.936 129.613 186.552C128.877 186.168 128.306 185.645 127.901 184.984C127.496 184.312 127.293 183.549 127.293 182.696C127.293 181.832 127.49 181.069 127.885 180.408C128.29 179.736 128.84 179.213 129.533 178.84C130.226 178.456 131.01 178.264 131.885 178.264C132.728 178.264 133.485 178.445 134.157 178.808C134.84 179.16 135.378 179.672 135.773 180.344C136.168 181.005 136.365 181.8 136.365 182.728C136.365 182.824 136.36 182.936 136.349 183.064C136.338 183.181 136.328 183.293 136.317 183.4H129.325V181.944H135.005L134.045 182.376C134.045 181.928 133.954 181.539 133.773 181.208C133.592 180.877 133.341 180.621 133.021 180.44C132.701 180.248 132.328 180.152 131.901 180.152C131.474 180.152 131.096 180.248 130.765 180.44C130.445 180.621 130.194 180.883 130.013 181.224C129.832 181.555 129.741 181.949 129.741 182.408V182.792C129.741 183.261 129.842 183.677 130.045 184.04C130.258 184.392 130.552 184.664 130.925 184.856C131.309 185.037 131.757 185.128 132.269 185.128C132.728 185.128 133.128 185.059 133.469 184.92C133.821 184.781 134.141 184.573 134.429 184.296L135.757 185.736C135.362 186.184 134.866 186.531 134.269 186.776C133.672 187.011 132.984 187.128 132.205 187.128ZM138.278 187V178.392H140.758V181.752H144.502V178.392H146.998V187H144.502V183.784H140.758V187H138.278ZM149.388 187V178.392H151.868V181.752H155.612V178.392H158.108V187H155.612V183.784H151.868V187H149.388ZM165.921 187V184.136L166.273 184.536H163.889C162.652 184.536 161.681 184.28 160.977 183.768C160.273 183.256 159.921 182.52 159.921 181.56C159.921 180.536 160.289 179.752 161.025 179.208C161.772 178.664 162.774 178.392 164.033 178.392H168.145V187H165.921ZM159.793 187L162.081 183.72H164.625L162.449 187H159.793ZM165.921 183.368V179.784L166.273 180.424H164.081C163.569 180.424 163.169 180.52 162.881 180.712C162.604 180.904 162.465 181.213 162.465 181.64C162.465 182.461 162.993 182.872 164.049 182.872H166.273L165.921 183.368Z" fill="white"/>
<path d="M74.592 211V209.912L79.152 205.512C79.5573 205.128 79.856 204.792 80.048 204.504C80.2507 204.205 80.384 203.933 80.448 203.688C80.5227 203.432 80.56 203.187 80.56 202.952C80.56 202.376 80.3573 201.923 79.952 201.592C79.5467 201.261 78.9547 201.096 78.176 201.096C77.5787 201.096 77.04 201.197 76.56 201.4C76.08 201.592 75.664 201.896 75.312 202.312L74.224 201.368C74.6507 200.824 75.2213 200.408 75.936 200.12C76.6613 199.821 77.456 199.672 78.32 199.672C79.0987 199.672 79.776 199.8 80.352 200.056C80.928 200.301 81.3707 200.659 81.68 201.128C82 201.597 82.16 202.152 82.16 202.792C82.16 203.155 82.112 203.512 82.016 203.864C81.92 204.216 81.7387 204.589 81.472 204.984C81.2053 205.379 80.8213 205.821 80.32 206.312L76.256 210.232L75.872 209.608H82.64V211H74.592ZM87.5715 211.128C86.7822 211.128 86.0142 211.005 85.2675 210.76C84.5315 210.515 83.9288 210.184 83.4595 209.768L84.1955 208.504C84.5688 208.856 85.0542 209.144 85.6515 209.368C86.2488 209.592 86.8835 209.704 87.5555 209.704C88.4088 209.704 89.0648 209.523 89.5235 209.16C89.9822 208.797 90.2115 208.312 90.2115 207.704C90.2115 207.288 90.1102 206.925 89.9075 206.616C89.7048 206.307 89.3528 206.072 88.8515 205.912C88.3608 205.741 87.6835 205.656 86.8195 205.656H84.2755L84.8675 199.8H91.1875V201.192H85.4595L86.2915 200.408L85.8275 205.032L84.9955 204.264H87.1555C88.2755 204.264 89.1768 204.408 89.8595 204.696C90.5422 204.984 91.0382 205.384 91.3475 205.896C91.6568 206.397 91.8115 206.979 91.8115 207.64C91.8115 208.28 91.6568 208.867 91.3475 209.4C91.0382 209.923 90.5688 210.344 89.9395 210.664C89.3208 210.973 88.5315 211.128 87.5715 211.128ZM98.1599 211V202.52H102.096C103.088 202.52 103.867 202.712 104.432 203.096C105.008 203.469 105.296 204.003 105.296 204.696C105.296 205.389 105.024 205.928 104.48 206.312C103.947 206.685 103.237 206.872 102.352 206.872L102.592 206.456C103.605 206.456 104.357 206.643 104.848 207.016C105.339 207.389 105.584 207.939 105.584 208.664C105.584 209.4 105.307 209.976 104.752 210.392C104.208 210.797 103.371 211 102.24 211H98.1599ZM99.6639 209.816H102.128C102.768 209.816 103.248 209.72 103.568 209.528C103.888 209.325 104.048 209.005 104.048 208.568C104.048 208.12 103.899 207.795 103.6 207.592C103.312 207.379 102.853 207.272 102.224 207.272H99.6639V209.816ZM99.6639 206.168H101.968C102.555 206.168 102.997 206.061 103.296 205.848C103.605 205.624 103.76 205.315 103.76 204.92C103.76 204.515 103.605 204.211 103.296 204.008C102.997 203.805 102.555 203.704 101.968 203.704H99.6639V206.168ZM107.988 211V202.52H109.524V211H107.988ZM108.756 200.888C108.457 200.888 108.207 200.792 108.004 200.6C107.812 200.408 107.716 200.173 107.716 199.896C107.716 199.608 107.812 199.368 108.004 199.176C108.207 198.984 108.457 198.888 108.756 198.888C109.055 198.888 109.3 198.984 109.492 199.176C109.695 199.357 109.796 199.587 109.796 199.864C109.796 200.152 109.7 200.397 109.508 200.6C109.316 200.792 109.065 200.888 108.756 200.888ZM118.311 210.28V203.864H114.631L114.551 205.496C114.53 206.029 114.493 206.547 114.439 207.048C114.397 207.539 114.322 207.992 114.215 208.408C114.119 208.824 113.975 209.165 113.783 209.432C113.591 209.699 113.335 209.864 113.015 209.928L111.495 209.656C111.826 209.667 112.093 209.56 112.295 209.336C112.498 209.101 112.653 208.781 112.759 208.376C112.877 207.971 112.962 207.512 113.015 207C113.069 206.477 113.111 205.939 113.143 205.384L113.271 202.52H119.847V210.28H118.311ZM111.159 212.968V209.656H121.143V212.968H119.703V211H112.615V212.968H111.159ZM128.936 210.28V203.864H125.256L125.176 205.496C125.155 206.029 125.118 206.547 125.064 207.048C125.022 207.539 124.947 207.992 124.84 208.408C124.744 208.824 124.6 209.165 124.408 209.432C124.216 209.699 123.96 209.864 123.64 209.928L122.12 209.656C122.451 209.667 122.718 209.56 122.92 209.336C123.123 209.101 123.278 208.781 123.384 208.376C123.502 207.971 123.587 207.512 123.64 207C123.694 206.477 123.736 205.939 123.768 205.384L123.896 202.52H130.472V210.28H128.936ZM121.784 212.968V209.656H131.768V212.968H130.328V211H123.24V212.968H121.784ZM133.769 211V202.52H135.305V211H133.769ZM134.537 200.888C134.239 200.888 133.988 200.792 133.785 200.6C133.593 200.408 133.497 200.173 133.497 199.896C133.497 199.608 133.593 199.368 133.785 199.176C133.988 198.984 134.239 198.888 134.537 198.888C134.836 198.888 135.081 198.984 135.273 199.176C135.476 199.357 135.577 199.587 135.577 199.864C135.577 200.152 135.481 200.397 135.289 200.6C135.097 200.792 134.847 200.888 134.537 200.888ZM136.893 210.984L136.989 209.688C137.063 209.699 137.133 209.709 137.197 209.72C137.261 209.731 137.319 209.736 137.373 209.736C137.714 209.736 137.981 209.619 138.173 209.384C138.375 209.149 138.525 208.84 138.621 208.456C138.717 208.061 138.786 207.619 138.829 207.128C138.871 206.637 138.903 206.147 138.924 205.656L139.069 202.52H145.581V211H144.045V203.416L144.413 203.864H140.061L140.413 203.4L140.301 205.752C140.269 206.499 140.21 207.197 140.125 207.848C140.039 208.499 139.906 209.069 139.725 209.56C139.554 210.051 139.314 210.435 139.005 210.712C138.706 210.989 138.317 211.128 137.837 211.128C137.698 211.128 137.549 211.112 137.389 211.08C137.239 211.059 137.074 211.027 136.893 210.984ZM152.327 211.096C151.42 211.096 150.62 210.909 149.927 210.536C149.244 210.163 148.711 209.651 148.327 209C147.953 208.349 147.767 207.603 147.767 206.76C147.767 205.917 147.948 205.171 148.311 204.52C148.684 203.869 149.191 203.363 149.831 203C150.481 202.627 151.212 202.44 152.023 202.44C152.844 202.44 153.569 202.621 154.199 202.984C154.828 203.347 155.319 203.859 155.671 204.52C156.033 205.171 156.215 205.933 156.215 206.808C156.215 206.872 156.209 206.947 156.199 207.032C156.199 207.117 156.193 207.197 156.183 207.272H148.967V206.168H155.383L154.759 206.552C154.769 206.008 154.657 205.523 154.423 205.096C154.188 204.669 153.863 204.339 153.447 204.104C153.041 203.859 152.567 203.736 152.023 203.736C151.489 203.736 151.015 203.859 150.599 204.104C150.183 204.339 149.857 204.675 149.623 205.112C149.388 205.539 149.271 206.029 149.271 206.584V206.84C149.271 207.405 149.399 207.912 149.655 208.36C149.921 208.797 150.289 209.139 150.759 209.384C151.228 209.629 151.767 209.752 152.375 209.752C152.876 209.752 153.329 209.667 153.735 209.496C154.151 209.325 154.513 209.069 154.823 208.728L155.671 209.72C155.287 210.168 154.807 210.509 154.231 210.744C153.665 210.979 153.031 211.096 152.327 211.096ZM158.597 211V202.52H160.133V206.12H164.965V202.52H166.501V211H164.965V207.448H160.133V211H158.597ZM173.408 205.4C174.485 205.411 175.307 205.656 175.872 206.136C176.437 206.616 176.72 207.293 176.72 208.168C176.72 209.085 176.411 209.795 175.792 210.296C175.173 210.787 174.299 211.027 173.168 211.016L169.488 211V202.52H171.024V205.384L173.408 205.4ZM173.04 209.848C173.733 209.859 174.256 209.72 174.608 209.432C174.971 209.144 175.152 208.717 175.152 208.152C175.152 207.597 174.976 207.192 174.624 206.936C174.272 206.68 173.744 206.547 173.04 206.536L171.024 206.504V209.832L173.04 209.848Z" fill="white"/>
<path d="M47.6689 177.103C47.6689 177.103 47.2111 176.463 47.1907 176.078C47.172 175.73 47.6298 175.822 48.1251 175.822C48.6204 175.822 59.9517 175.803 60.2798 175.803C60.6079 175.803 60.847 175.73 60.7376 176.261C60.6517 176.677 60.397 177.102 60.397 177.102L53.8173 177.414L47.6689 177.103Z" fill="#E4C5B1"/>
<path d="M61.2798 181.67L61.2751 182.483L62.1157 182.366V181.669L64.8001 181.662V182.319L65.647 182.345V181.662C65.647 181.662 65.861 181.653 66.011 181.653C66.2157 181.653 66.2595 181.466 66.2595 181.397C66.2595 181.328 66.2251 181.141 65.9267 181.15C65.6282 181.158 63.4376 180.938 63.4376 180.938L60.9142 181.167C60.9142 181.167 60.7017 181.18 60.7017 181.402C60.7017 181.631 60.8251 181.672 61.0282 181.672C61.1735 181.672 61.2798 181.67 61.2798 181.67Z" fill="#858687"/>
<path d="M65.8484 177.819H61.0844C60.9828 177.819 60.9391 177.895 60.9313 178.058C60.9234 178.22 60.9141 181.169 60.9141 181.169L66.0016 181.161C66.0016 181.161 66.0094 178.136 66.0187 178.016C66.0281 177.895 65.9516 177.819 65.8484 177.819Z" fill="#E0DFDE"/>
<path d="M61.4171 178.236L61.4077 180.792H65.5155L65.5421 178.236H61.4171Z" fill="#FFA627"/>
<path d="M61.4124 179.495C61.4124 179.495 62.1327 178.798 62.7983 178.85C63.4624 178.902 63.353 179.617 63.7608 179.6C64.1702 179.583 65.5405 178.519 65.5405 178.519L65.5296 179.205C65.5296 179.205 64.339 180.239 63.6405 180.214C62.9421 180.189 63.0874 179.53 62.6608 179.498C62.1702 179.462 61.4077 180.298 61.4077 180.298L61.4124 179.495Z" fill="#EB2901"/>
<path d="M60.9765 192.323H66.0812C66.2359 192.323 66.3593 192.169 66.3593 191.937C66.3593 191.706 66.3703 183.33 66.3703 183.33L63.5984 182.914L60.8656 183.37L60.5906 189.809L60.9765 192.323Z" fill="#C4AA9D"/>
<path d="M60.8657 183.37L66.3704 183.366C66.3704 183.366 66.5876 182.7 66.6282 182.523C66.6688 182.345 66.7517 182.155 66.3829 182.141C66.0142 182.127 60.9688 182.144 60.9688 182.144L60.8657 183.37Z" fill="#E4C5B1"/>
<path d="M60.9734 182.145L60.975 192.325C60.975 192.325 48.1578 192.341 47.9422 192.341C47.7266 192.341 47.6641 192.186 47.6641 191.847V177.103L60.3969 177.098V182.148L60.9734 182.145Z" fill="#987869"/>
<path d="M47.664 177.698H60.3984V188.072H47.6656C47.6656 188.073 47.6468 177.681 47.664 177.698Z" fill="#C6A99D"/>
<path d="M49.9812 192.336C49.9812 192.336 50.0078 188.925 50.0015 188.88C49.9953 188.839 51.9312 188.855 53.8921 188.855C55.9312 188.856 58 188.844 57.9937 188.867C57.9828 188.914 57.9812 192.327 57.9812 192.327L49.9812 192.336Z" fill="#765F57"/>
<path d="M48.2266 189.642H49.3078V191.953H48.2266V189.642Z" fill="#464B4E"/>
<path d="M48.4297 189.85H49.1156V191.75H48.4297V189.85Z" fill="#A7D0D6"/>
<path d="M58.728 189.7H59.7843V191.939H58.728V189.7Z" fill="#464B4E"/>
<path d="M58.9407 189.913H59.5875V191.727H58.9407V189.913Z" fill="#A7D0D6"/>
<path d="M58.7499 188.653L59.7734 188.661C59.7734 188.661 60.1015 189.744 60.139 189.858C60.178 189.977 60.1077 190.07 59.9187 190.078C59.7687 190.084 58.578 190.078 58.4749 190.07C58.3718 190.062 58.3327 189.944 58.3874 189.786C58.4187 189.702 58.7499 188.653 58.7499 188.653ZM48.2562 188.605H49.3124C49.3124 188.605 49.5749 189.505 49.628 189.709C49.6749 189.891 49.5577 190.025 49.4312 190.025C49.3046 190.025 48.1062 190.017 48.0202 190.017C47.9343 190.017 47.8312 189.859 47.9015 189.631C47.9718 189.4 48.2562 188.605 48.2562 188.605Z" fill="#385661"/>
<path d="M52.6718 192.333L50.5874 192.336L50.614 189.881H52.6718V192.333ZM55.1405 192.33L53.0499 192.333V189.897H55.1405V192.33ZM57.4358 192.328L55.4937 192.33L55.4952 189.905H57.4343L57.4358 192.328Z" fill="#464B4E"/>
<path d="M57.2298 192.328C57.2298 192.328 56.7892 192.331 56.447 192.331C56.1048 192.331 55.7157 192.33 55.7157 192.33V190.117H57.2298V192.328ZM54.9501 192.331C54.9501 192.331 54.4782 192.339 54.0673 192.337L53.2157 192.334V190.119H54.9501V192.331ZM52.4298 192.334C52.4298 192.334 51.8267 192.341 51.4876 192.339C51.197 192.337 50.8188 192.337 50.8188 192.337V190.112H52.436L52.4298 192.334Z" fill="#A8CFD6"/>
<path d="M48.2796 178.411H49.4484V181.183H48.2796V178.411ZM48.2796 181.92H49.4343V184.445H48.2796V181.92ZM48.239 185.127H49.4453V187.617H48.239V185.127ZM51.2875 178.341H52.9843V187.609H51.2875V178.341ZM53.3453 178.356H55.0687V187.602H53.3453V178.356ZM55.4953 178.333H57.0984V187.57H55.4953V178.333Z" fill="#464B4E"/>
<path d="M51.5859 178.741H52.7172V187.317H51.5859V178.741ZM53.6437 178.772H54.7906V187.333H53.6437V178.772ZM48.5687 178.709H49.1812V180.845H48.5687V178.709ZM48.5391 182.213H49.1656V184.114H48.5391V182.213ZM48.5531 185.464H49.1812V187.286H48.5531V185.464ZM55.8078 178.772H56.8297V187.286H55.8078V178.772Z" fill="#A8CFD6"/>
<path d="M58.6969 178.413H59.8656V181.184H58.6969V178.413ZM58.6937 181.906H59.8484V184.431H58.6937V181.906ZM58.6562 185.127H59.8625V187.617H58.6562V185.127Z" fill="#464B4E"/>
<path d="M58.9859 178.709H59.5984V180.845H58.9859V178.709ZM58.9531 182.197H59.5797V184.098H58.9531V182.197ZM58.9703 185.464H59.5984V187.286H58.9703V185.464Z" fill="#A8CFD6"/>
<path d="M61.6655 189.445H65.6843V191.955H61.6655V189.445Z" fill="#464B4E"/>
<path d="M61.9062 189.606H65.4578V191.742H61.9062V189.606Z" fill="#A7D0D6"/>
<path d="M61.6718 188.702C61.6718 188.702 61.3577 189.83 61.3327 189.906C61.3077 189.983 61.3499 190.059 61.4859 190.059H65.9296C66.0234 190.059 66.0562 189.958 66.014 189.78C65.9718 189.602 65.6827 188.677 65.6827 188.677L61.6718 188.702Z" fill="#385661"/>
<path d="M61.9173 186.197H63.3173V187.719H61.9173V186.197ZM61.9126 183.859H63.3126V185.375H61.9126V183.859Z" fill="#464B4E"/>
<path d="M62.147 186.417H63.0798V187.472H62.147V186.417ZM62.147 184.089H63.0798V185.116H62.147V184.089Z" fill="#A8CFD6"/>
<path d="M63.9937 186.192H65.3937V187.714H63.9937V186.192ZM63.989 183.855H65.389V185.37H63.989V183.855Z" fill="#464B4E"/>
<path d="M64.2219 186.414H65.1547V187.467H64.2219V186.414ZM64.2219 184.084H65.1547V185.111H64.2219V184.084Z" fill="#A8CFD6"/>
<rect y="228" width="350" height="80" rx="40" fill="url(#paint10_linear_13_211)"/>
<path d="M78.2 266V257.392H80.68V260.752H84.424V257.392H86.92V266H84.424V262.784H80.68V266H78.2ZM94.4614 266V264.32L94.3014 263.952V260.944C94.3014 260.411 94.136 259.995 93.8054 259.696C93.4854 259.397 92.9894 259.248 92.3174 259.248C91.8587 259.248 91.4054 259.323 90.9574 259.472C90.52 259.611 90.1467 259.803 89.8374 260.048L88.9414 258.304C89.4107 257.973 89.976 257.717 90.6374 257.536C91.2987 257.355 91.9707 257.264 92.6534 257.264C93.9654 257.264 94.984 257.573 95.7094 258.192C96.4347 258.811 96.7974 259.776 96.7974 261.088V266H94.4614ZM91.8374 266.128C91.1654 266.128 90.5894 266.016 90.1094 265.792C89.6294 265.557 89.2614 265.243 89.0054 264.848C88.7494 264.453 88.6214 264.011 88.6214 263.52C88.6214 263.008 88.744 262.56 88.9894 262.176C89.2454 261.792 89.6454 261.493 90.1894 261.28C90.7334 261.056 91.4427 260.944 92.3174 260.944H94.6054V262.4H92.5894C92.0027 262.4 91.5974 262.496 91.3734 262.688C91.16 262.88 91.0534 263.12 91.0534 263.408C91.0534 263.728 91.176 263.984 91.4214 264.176C91.6774 264.357 92.024 264.448 92.4614 264.448C92.8774 264.448 93.2507 264.352 93.5814 264.16C93.912 263.957 94.152 263.664 94.3014 263.28L94.6854 264.432C94.504 264.987 94.1734 265.408 93.6934 265.696C93.2134 265.984 92.5947 266.128 91.8374 266.128ZM104.886 264.88V259.44H102.07L102.022 260.544C102 261.003 101.974 261.44 101.942 261.856C101.91 262.272 101.846 262.651 101.75 262.992C101.664 263.323 101.536 263.605 101.366 263.84C101.195 264.064 100.966 264.219 100.678 264.304L98.2136 263.952C98.523 263.952 98.7736 263.861 98.9656 263.68C99.1576 263.488 99.307 263.227 99.4136 262.896C99.5203 262.555 99.6003 262.171 99.6536 261.744C99.707 261.307 99.7443 260.848 99.7656 260.368L99.8776 257.392H107.382V264.88H104.886ZM97.9256 267.856V263.952H108.614V267.856H106.294V266H100.246V267.856H97.9256ZM110.168 266V257.392H112.664V266H110.168ZM111.416 256.192C110.958 256.192 110.584 256.059 110.296 255.792C110.008 255.525 109.864 255.195 109.864 254.8C109.864 254.405 110.008 254.075 110.296 253.808C110.584 253.541 110.958 253.408 111.416 253.408C111.875 253.408 112.248 253.536 112.536 253.792C112.824 254.037 112.968 254.357 112.968 254.752C112.968 255.168 112.824 255.515 112.536 255.792C112.259 256.059 111.886 256.192 111.416 256.192ZM115.059 266V257.392H117.539V262.512L121.731 257.392H124.019V266H121.539V260.88L117.363 266H115.059ZM119.379 256.464C118.441 256.464 117.737 256.261 117.267 255.856C116.798 255.44 116.558 254.816 116.547 253.984H118.179C118.19 254.347 118.291 254.635 118.483 254.848C118.675 255.061 118.969 255.168 119.363 255.168C119.747 255.168 120.041 255.061 120.243 254.848C120.457 254.635 120.563 254.347 120.563 253.984H122.227C122.227 254.816 121.987 255.44 121.507 255.856C121.027 256.261 120.318 256.464 119.379 256.464ZM126.419 266V257.392H128.899V260.752H132.643V257.392H135.139V266H132.643V262.784H128.899V266H126.419ZM137.512 266V257.392H140.008V266H137.512ZM138.76 256.192C138.301 256.192 137.928 256.059 137.64 255.792C137.352 255.525 137.208 255.195 137.208 254.8C137.208 254.405 137.352 254.075 137.64 253.808C137.928 253.541 138.301 253.408 138.76 253.408C139.219 253.408 139.592 253.536 139.88 253.792C140.168 254.037 140.312 254.357 140.312 254.752C140.312 255.168 140.168 255.515 139.88 255.792C139.603 256.059 139.229 256.192 138.76 256.192ZM146.499 266.128C145.571 266.128 144.744 265.941 144.019 265.568C143.294 265.184 142.723 264.656 142.307 263.984C141.902 263.312 141.699 262.549 141.699 261.696C141.699 260.832 141.902 260.069 142.307 259.408C142.723 258.736 143.294 258.213 144.019 257.84C144.744 257.456 145.571 257.264 146.499 257.264C147.406 257.264 148.195 257.456 148.867 257.84C149.539 258.213 150.035 258.752 150.355 259.456L148.419 260.496C148.195 260.091 147.912 259.792 147.571 259.6C147.24 259.408 146.878 259.312 146.483 259.312C146.056 259.312 145.672 259.408 145.331 259.6C144.99 259.792 144.718 260.064 144.515 260.416C144.323 260.768 144.227 261.195 144.227 261.696C144.227 262.197 144.323 262.624 144.515 262.976C144.718 263.328 144.99 263.6 145.331 263.792C145.672 263.984 146.056 264.08 146.483 264.08C146.878 264.08 147.24 263.989 147.571 263.808C147.912 263.616 148.195 263.312 148.419 262.896L150.355 263.952C150.035 264.645 149.539 265.184 148.867 265.568C148.195 265.941 147.406 266.128 146.499 266.128ZM153.696 266V258.864L154.256 259.44H150.784V257.392H159.088V259.44H155.616L156.176 258.864V266H153.696ZM165.075 260.144C166.205 260.155 167.064 260.411 167.651 260.912C168.248 261.403 168.547 262.101 168.547 263.008C168.547 263.957 168.211 264.699 167.539 265.232C166.867 265.755 165.933 266.016 164.739 266.016L160.419 266V257.392H162.899V260.144H165.075ZM164.515 264.24C164.995 264.251 165.363 264.149 165.619 263.936C165.875 263.723 166.003 263.403 166.003 262.976C166.003 262.549 165.875 262.245 165.619 262.064C165.363 261.872 164.995 261.771 164.515 261.76L162.899 261.744V264.24H164.515Z" fill="#060606"/>
<path d="M81.4 279.672C82.4133 279.672 83.2667 279.891 83.96 280.328C84.664 280.765 85.1973 281.4 85.56 282.232C85.9227 283.053 86.104 284.061 86.104 285.256C86.104 286.525 85.88 287.597 85.432 288.472C84.984 289.347 84.3653 290.008 83.576 290.456C82.7867 290.904 81.864 291.128 80.808 291.128C80.2853 291.128 79.7787 291.075 79.288 290.968C78.808 290.861 78.3867 290.696 78.024 290.472L78.632 289.224C78.9307 289.416 79.2613 289.555 79.624 289.64C79.9973 289.715 80.3867 289.752 80.792 289.752C81.9227 289.752 82.824 289.4 83.496 288.696C84.168 287.981 84.504 286.925 84.504 285.528C84.504 285.304 84.4933 285.037 84.472 284.728C84.4507 284.419 84.4027 284.115 84.328 283.816L84.856 284.36C84.7067 284.851 84.456 285.267 84.104 285.608C83.7627 285.939 83.3467 286.189 82.856 286.36C82.376 286.52 81.848 286.6 81.272 286.6C80.536 286.6 79.88 286.461 79.304 286.184C78.728 285.907 78.2747 285.517 77.944 285.016C77.6133 284.504 77.448 283.901 77.448 283.208C77.448 282.483 77.6187 281.859 77.96 281.336C78.312 280.803 78.7867 280.392 79.384 280.104C79.992 279.816 80.664 279.672 81.4 279.672ZM81.464 280.968C80.984 280.968 80.5573 281.059 80.184 281.24C79.8107 281.421 79.5173 281.672 79.304 281.992C79.1013 282.312 79 282.696 79 283.144C79 283.805 79.2293 284.333 79.688 284.728C80.1467 285.112 80.7653 285.304 81.544 285.304C82.056 285.304 82.504 285.208 82.888 285.016C83.2827 284.824 83.5867 284.563 83.8 284.232C84.024 283.901 84.136 283.533 84.136 283.128C84.136 282.733 84.0347 282.376 83.832 282.056C83.6293 281.736 83.3307 281.475 82.936 281.272C82.5413 281.069 82.0507 280.968 81.464 280.968ZM91.275 279.672C92.2883 279.672 93.1417 279.891 93.835 280.328C94.539 280.765 95.0723 281.4 95.435 282.232C95.7977 283.053 95.979 284.061 95.979 285.256C95.979 286.525 95.755 287.597 95.307 288.472C94.859 289.347 94.2403 290.008 93.451 290.456C92.6617 290.904 91.739 291.128 90.683 291.128C90.1603 291.128 89.6537 291.075 89.163 290.968C88.683 290.861 88.2617 290.696 87.899 290.472L88.507 289.224C88.8057 289.416 89.1363 289.555 89.499 289.64C89.8723 289.715 90.2617 289.752 90.667 289.752C91.7977 289.752 92.699 289.4 93.371 288.696C94.043 287.981 94.379 286.925 94.379 285.528C94.379 285.304 94.3683 285.037 94.347 284.728C94.3257 284.419 94.2777 284.115 94.203 283.816L94.731 284.36C94.5817 284.851 94.331 285.267 93.979 285.608C93.6377 285.939 93.2217 286.189 92.731 286.36C92.251 286.52 91.723 286.6 91.147 286.6C90.411 286.6 89.755 286.461 89.179 286.184C88.603 285.907 88.1497 285.517 87.819 285.016C87.4883 284.504 87.323 283.901 87.323 283.208C87.323 282.483 87.4937 281.859 87.835 281.336C88.187 280.803 88.6617 280.392 89.259 280.104C89.867 279.816 90.539 279.672 91.275 279.672ZM91.339 280.968C90.859 280.968 90.4323 281.059 90.059 281.24C89.6857 281.421 89.3923 281.672 89.179 281.992C88.9763 282.312 88.875 282.696 88.875 283.144C88.875 283.805 89.1043 284.333 89.563 284.728C90.0217 285.112 90.6403 285.304 91.419 285.304C91.931 285.304 92.379 285.208 92.763 285.016C93.1577 284.824 93.4617 284.563 93.675 284.232C93.899 283.901 94.011 283.533 94.011 283.128C94.011 282.733 93.9097 282.376 93.707 282.056C93.5043 281.736 93.2057 281.475 92.811 281.272C92.4163 281.069 91.9257 280.968 91.339 280.968ZM98.3865 291.096C98.0878 291.096 97.8318 290.995 97.6185 290.792C97.4052 290.579 97.2985 290.312 97.2985 289.992C97.2985 289.672 97.4052 289.411 97.6185 289.208C97.8318 289.005 98.0878 288.904 98.3865 288.904C98.6745 288.904 98.9198 289.005 99.1225 289.208C99.3358 289.411 99.4425 289.672 99.4425 289.992C99.4425 290.312 99.3358 290.579 99.1225 290.792C98.9198 290.995 98.6745 291.096 98.3865 291.096ZM104.588 279.672C105.601 279.672 106.454 279.891 107.148 280.328C107.852 280.765 108.385 281.4 108.748 282.232C109.11 283.053 109.292 284.061 109.292 285.256C109.292 286.525 109.068 287.597 108.62 288.472C108.172 289.347 107.553 290.008 106.764 290.456C105.974 290.904 105.052 291.128 103.996 291.128C103.473 291.128 102.966 291.075 102.476 290.968C101.996 290.861 101.574 290.696 101.212 290.472L101.82 289.224C102.118 289.416 102.449 289.555 102.812 289.64C103.185 289.715 103.574 289.752 103.98 289.752C105.11 289.752 106.012 289.4 106.684 288.696C107.356 287.981 107.692 286.925 107.692 285.528C107.692 285.304 107.681 285.037 107.66 284.728C107.638 284.419 107.59 284.115 107.516 283.816L108.044 284.36C107.894 284.851 107.644 285.267 107.292 285.608C106.95 285.939 106.534 286.189 106.044 286.36C105.564 286.52 105.036 286.6 104.46 286.6C103.724 286.6 103.068 286.461 102.492 286.184C101.916 285.907 101.462 285.517 101.132 285.016C100.801 284.504 100.636 283.901 100.636 283.208C100.636 282.483 100.806 281.859 101.148 281.336C101.5 280.803 101.974 280.392 102.572 280.104C103.18 279.816 103.852 279.672 104.588 279.672ZM104.652 280.968C104.172 280.968 103.745 281.059 103.372 281.24C102.998 281.421 102.705 281.672 102.492 281.992C102.289 282.312 102.188 282.696 102.188 283.144C102.188 283.805 102.417 284.333 102.876 284.728C103.334 285.112 103.953 285.304 104.732 285.304C105.244 285.304 105.692 285.208 106.076 285.016C106.47 284.824 106.774 284.563 106.988 284.232C107.212 283.901 107.324 283.533 107.324 283.128C107.324 282.733 107.222 282.376 107.02 282.056C106.817 281.736 106.518 281.475 106.124 281.272C105.729 281.069 105.238 280.968 104.652 280.968ZM112.367 291L120.015 279.8H121.247L113.599 291H112.367ZM113.263 285.816C112.751 285.816 112.297 285.688 111.903 285.432C111.508 285.176 111.199 284.819 110.975 284.36C110.761 283.901 110.655 283.368 110.655 282.76C110.655 282.152 110.761 281.619 110.975 281.16C111.199 280.701 111.508 280.344 111.903 280.088C112.297 279.832 112.751 279.704 113.263 279.704C113.785 279.704 114.239 279.832 114.623 280.088C115.017 280.344 115.321 280.701 115.535 281.16C115.748 281.619 115.855 282.152 115.855 282.76C115.855 283.368 115.748 283.901 115.535 284.36C115.321 284.819 115.017 285.176 114.623 285.432C114.239 285.688 113.785 285.816 113.263 285.816ZM113.263 284.904C113.753 284.904 114.137 284.717 114.415 284.344C114.692 283.96 114.831 283.432 114.831 282.76C114.831 282.088 114.692 281.565 114.415 281.192C114.137 280.808 113.753 280.616 113.263 280.616C112.783 280.616 112.399 280.808 112.111 281.192C111.833 281.565 111.695 282.088 111.695 282.76C111.695 283.421 111.833 283.944 112.111 284.328C112.399 284.712 112.783 284.904 113.263 284.904ZM120.351 291.096C119.839 291.096 119.385 290.968 118.991 290.712C118.596 290.456 118.292 290.099 118.079 289.64C117.865 289.181 117.759 288.648 117.759 288.04C117.759 287.432 117.865 286.899 118.079 286.44C118.292 285.981 118.596 285.624 118.991 285.368C119.385 285.112 119.839 284.984 120.351 284.984C120.873 284.984 121.327 285.112 121.711 285.368C122.105 285.624 122.409 285.981 122.623 286.44C122.847 286.899 122.959 287.432 122.959 288.04C122.959 288.648 122.847 289.181 122.623 289.64C122.409 290.099 122.105 290.456 121.711 290.712C121.327 290.968 120.873 291.096 120.351 291.096ZM120.351 290.184C120.831 290.184 121.209 289.997 121.487 289.624C121.775 289.24 121.919 288.712 121.919 288.04C121.919 287.379 121.775 286.856 121.487 286.472C121.209 286.088 120.831 285.896 120.351 285.896C119.871 285.896 119.487 286.088 119.199 286.472C118.921 286.845 118.783 287.368 118.783 288.04C118.783 288.712 118.921 289.24 119.199 289.624C119.487 289.997 119.871 290.184 120.351 290.184ZM129.332 291V282.52H130.868V286.12H135.7V282.52H137.236V291H135.7V287.448H130.868V291H129.332ZM145.422 291V289.208L145.342 288.872V285.816C145.342 285.165 145.15 284.664 144.766 284.312C144.393 283.949 143.828 283.768 143.07 283.768C142.569 283.768 142.078 283.853 141.598 284.024C141.118 284.184 140.713 284.403 140.382 284.68L139.742 283.528C140.18 283.176 140.702 282.909 141.31 282.728C141.929 282.536 142.574 282.44 143.246 282.44C144.409 282.44 145.305 282.723 145.934 283.288C146.564 283.853 146.878 284.717 146.878 285.88V291H145.422ZM142.638 291.096C142.009 291.096 141.454 290.989 140.974 290.776C140.505 290.563 140.142 290.269 139.886 289.896C139.63 289.512 139.502 289.08 139.502 288.6C139.502 288.141 139.609 287.725 139.822 287.352C140.046 286.979 140.404 286.68 140.894 286.456C141.396 286.232 142.068 286.12 142.91 286.12H145.598V287.224H142.974C142.206 287.224 141.689 287.352 141.422 287.608C141.156 287.864 141.022 288.173 141.022 288.536C141.022 288.952 141.188 289.288 141.518 289.544C141.849 289.789 142.308 289.912 142.894 289.912C143.47 289.912 143.972 289.784 144.398 289.528C144.836 289.272 145.15 288.899 145.342 288.408L145.646 289.464C145.444 289.965 145.086 290.365 144.574 290.664C144.062 290.952 143.417 291.096 142.638 291.096ZM155.436 290.28V283.864H151.756L151.676 285.496C151.655 286.029 151.618 286.547 151.564 287.048C151.522 287.539 151.447 287.992 151.34 288.408C151.244 288.824 151.1 289.165 150.908 289.432C150.716 289.699 150.46 289.864 150.14 289.928L148.62 289.656C148.951 289.667 149.218 289.56 149.42 289.336C149.623 289.101 149.778 288.781 149.884 288.376C150.002 287.971 150.087 287.512 150.14 287C150.194 286.477 150.236 285.939 150.268 285.384L150.396 282.52H156.972V290.28H155.436ZM148.284 292.968V289.656H158.268V292.968H156.828V291H149.74V292.968H148.284ZM160.269 291V282.52H161.805V291H160.269ZM161.037 280.888C160.739 280.888 160.488 280.792 160.285 280.6C160.093 280.408 159.997 280.173 159.997 279.896C159.997 279.608 160.093 279.368 160.285 279.176C160.488 278.984 160.739 278.888 161.037 278.888C161.336 278.888 161.581 278.984 161.773 279.176C161.976 279.357 162.077 279.587 162.077 279.864C162.077 280.152 161.981 280.397 161.789 280.6C161.597 280.792 161.347 280.888 161.037 280.888ZM164.801 291V282.52H166.337V288.696L171.536 282.52H172.929V291H171.392V284.824L166.209 291H164.801ZM168.769 281.416C167.99 281.416 167.377 281.229 166.929 280.856C166.491 280.472 166.267 279.923 166.257 279.208H167.297C167.307 279.613 167.441 279.933 167.697 280.168C167.963 280.403 168.315 280.52 168.753 280.52C169.19 280.52 169.542 280.403 169.809 280.168C170.075 279.933 170.214 279.613 170.225 279.208H171.297C171.286 279.923 171.057 280.472 170.609 280.856C170.161 281.229 169.547 281.416 168.769 281.416ZM175.91 291V282.52H177.446V286.12H182.278V282.52H183.814V291H182.278V287.448H177.446V291H175.91ZM186.801 291V282.52H188.337V291H186.801ZM187.569 280.888C187.27 280.888 187.019 280.792 186.817 280.6C186.625 280.408 186.529 280.173 186.529 279.896C186.529 279.608 186.625 279.368 186.817 279.176C187.019 278.984 187.27 278.888 187.569 278.888C187.867 278.888 188.113 278.984 188.305 279.176C188.507 279.357 188.609 279.587 188.609 279.864C188.609 280.152 188.513 280.397 188.321 280.6C188.129 280.792 187.878 280.888 187.569 280.888ZM195.028 291.096C194.164 291.096 193.39 290.909 192.708 290.536C192.036 290.163 191.508 289.651 191.124 289C190.74 288.349 190.548 287.603 190.548 286.76C190.548 285.917 190.74 285.171 191.124 284.52C191.508 283.869 192.036 283.363 192.708 283C193.39 282.627 194.164 282.44 195.028 282.44C195.796 282.44 196.478 282.595 197.076 282.904C197.684 283.203 198.153 283.651 198.484 284.248L197.316 285C197.038 284.584 196.697 284.28 196.292 284.088C195.897 283.885 195.47 283.784 195.012 283.784C194.457 283.784 193.961 283.907 193.524 284.152C193.086 284.397 192.74 284.744 192.484 285.192C192.228 285.629 192.1 286.152 192.1 286.76C192.1 287.368 192.228 287.896 192.484 288.344C192.74 288.792 193.086 289.139 193.524 289.384C193.961 289.629 194.457 289.752 195.012 289.752C195.47 289.752 195.897 289.656 196.292 289.464C196.697 289.261 197.038 288.952 197.316 288.536L198.484 289.272C198.153 289.859 197.684 290.312 197.076 290.632C196.478 290.941 195.796 291.096 195.028 291.096ZM202.043 291V283.464L202.427 283.864H198.939V282.52H206.683V283.864H203.211L203.579 283.464V291H202.043ZM212.174 285.4C213.251 285.411 214.072 285.656 214.638 286.136C215.203 286.616 215.486 287.293 215.486 288.168C215.486 289.085 215.176 289.795 214.558 290.296C213.939 290.787 213.064 291.027 211.934 291.016L208.254 291V282.52H209.79V285.384L212.174 285.4ZM211.806 289.848C212.499 289.859 213.022 289.72 213.374 289.432C213.736 289.144 213.918 288.717 213.918 288.152C213.918 287.597 213.742 287.192 213.39 286.936C213.038 286.68 212.51 286.547 211.806 286.536L209.79 286.504V289.832L211.806 289.848Z" fill="#060606"/>
<path d="M58 269.129C58.938 269.129 59.8669 268.944 60.7335 268.585C61.6001 268.226 62.3875 267.7 63.0508 267.036C63.7141 266.373 64.2402 265.586 64.5992 264.719C64.9581 263.853 65.1429 262.924 65.1429 261.986V258.014C65.143 256.26 64.4972 254.566 63.3286 253.257M50.8572 259.6V261.986C50.8567 263.392 51.2713 264.767 52.0489 265.938C52.8265 267.11 53.9326 268.026 55.2286 268.571M61.5715 251.829C59.9309 250.881 57.9813 250.625 56.1515 251.115C54.3217 251.605 52.7616 252.802 51.8143 254.443C51.424 255.116 51.1488 255.85 51 256.614" stroke="white" stroke-linecap="round" stroke-linejoin="round"/>
<path d="M57.2572 255.014C57.7827 254.905 58.3259 254.915 58.8468 255.044C59.3678 255.173 59.8531 255.417 60.2672 255.759C60.6812 256.1 61.0134 256.53 61.2391 257.017C61.4649 257.504 61.5785 258.035 61.5715 258.571V260.871M60.6572 263.871C60.1712 264.413 59.5313 264.793 58.8234 264.961C58.1154 265.129 57.373 265.076 56.6956 264.81C56.0183 264.545 55.4382 264.079 55.0331 263.474C54.6279 262.87 54.4171 262.156 54.4287 261.429V258.571C54.4247 258.081 54.522 257.594 54.7144 257.143M58.0001 258.729V261.114" stroke="white" stroke-linecap="round" stroke-linejoin="round"/>
<defs>
<linearGradient id="paint0_linear_13_211" x1="175" y1="0" x2="175" y2="290" gradientUnits="userSpaceOnUse">
<stop stop-color="#002346" stop-opacity="0.89"/>
<stop offset="0.504808" stop-color="#0056AC"/>
</linearGradient>
<linearGradient id="paint1_linear_13_211" x1="45.497" y1="27.298" x2="47.653" y2="33.323" gradientUnits="userSpaceOnUse">
<stop offset="0.125" stop-color="#BD96FF"/>
<stop offset="1" stop-color="#9C6CFE"/>
</linearGradient>
<linearGradient id="paint2_linear_13_211" x1="48.25" y1="25.786" x2="51.29" y2="35.725" gradientUnits="userSpaceOnUse">
<stop stop-color="#885EDB" stop-opacity="0"/>
<stop offset="1" stop-color="#E362F8"/>
</linearGradient>
<radialGradient id="paint3_radial_13_211" cx="0" cy="0" r="1" gradientUnits="userSpaceOnUse" gradientTransform="translate(54 31) rotate(66.0375) scale(4.92443)">
<stop stop-color="#30116E"/>
<stop offset="0.331" stop-color="#30116E" stop-opacity="0.812"/>
<stop offset="1" stop-color="#30116E" stop-opacity="0"/>
</radialGradient>
<linearGradient id="paint4_linear_13_211" x1="54.689" y1="21.165" x2="57.237" y2="25.234" gradientUnits="userSpaceOnUse">
<stop offset="0.125" stop-color="#9C6CFE"/>
<stop offset="1" stop-color="#7A41DC"/>
</linearGradient>
<linearGradient id="paint5_linear_13_211" x1="46.546" y1="19.864" x2="49.858" y2="25.154" gradientUnits="userSpaceOnUse">
<stop offset="0.125" stop-color="#BD96FF"/>
<stop offset="1" stop-color="#9C6CFE"/>
</linearGradient>
<linearGradient id="paint6_linear_13_211" x1="51.821" y1="28.188" x2="58.032" y2="34.641" gradientUnits="userSpaceOnUse">
<stop stop-color="#52D17C"/>
<stop offset="1" stop-color="#22918B"/>
</linearGradient>
<linearGradient id="paint7_linear_13_211" x1="54.438" y1="29.01" x2="55.972" y2="34.426" gradientUnits="userSpaceOnUse">
<stop stop-color="white"/>
<stop offset="1" stop-color="#E3FFD9"/>
</linearGradient>
<linearGradient id="paint8_linear_13_211" x1="175" y1="76" x2="175" y2="307" gradientUnits="userSpaceOnUse">
<stop stop-opacity="0.8"/>
<stop offset="0.682692" stop-color="#666666"/>
</linearGradient>
<linearGradient id="paint9_linear_13_211" x1="175" y1="152" x2="175" y2="303" gradientUnits="userSpaceOnUse">
<stop stop-color="#223737"/>
<stop offset="0.466346" stop-color="#35342F" stop-opacity="0.7"/>
</linearGradient>
<linearGradient id="paint10_linear_13_211" x1="0" y1="268" x2="350" y2="268" gradientUnits="userSpaceOnUse">
<stop stop-color="#808183"/>
<stop offset="1" stop-color="#E4E5E9"/>
</linearGradient>
</defs>
</svg>
