<svg width="350" height="308" viewBox="0 0 350 308" fill="none" xmlns="http://www.w3.org/2000/svg">
<rect width="350" height="290" rx="50" fill="url(#paint0_linear_13_211)"/>
<path d="M60.296 31L57.416 26.92L59.448 25.72L63.24 31H60.296ZM54.2 31V22.392H56.696V31H54.2ZM55.96 27.736V25.736H58.968V27.736H55.96ZM59.688 26.984L57.352 26.728L60.376 22.392H63.032L59.688 26.984ZM63.3776 30.984L63.5056 28.936C63.5696 28.9467 63.6336 28.9573 63.6976 28.968C63.7616 28.968 63.8203 28.968 63.8736 28.968C64.1723 28.968 64.407 28.8827 64.5776 28.712C64.7483 28.5413 64.8763 28.312 64.9616 28.024C65.047 27.7253 65.1056 27.3893 65.1376 27.016C65.1803 26.6427 65.2123 26.2533 65.2336 25.848L65.3616 22.392H72.7216V31H70.2256V23.832L70.7856 24.44H67.0096L67.5376 23.8L67.4256 25.96C67.3936 26.728 67.3296 27.432 67.2336 28.072C67.1483 28.712 67.0043 29.2667 66.8016 29.736C66.599 30.1947 66.327 30.552 65.9856 30.808C65.6443 31.0533 65.207 31.176 64.6736 31.176C64.4816 31.176 64.279 31.16 64.0656 31.128C63.8523 31.096 63.623 31.048 63.3776 30.984ZM75.1059 31V22.392H77.6019V31H75.1059ZM76.3539 21.192C75.8952 21.192 75.5219 21.0587 75.2339 20.792C74.9459 20.5253 74.8019 20.1947 74.8019 19.8C74.8019 19.4053 74.9459 19.0747 75.2339 18.808C75.5219 18.5413 75.8952 18.408 76.3539 18.408C76.8125 18.408 77.1859 18.536 77.4739 18.792C77.7619 19.0373 77.9059 19.3573 77.9059 19.752C77.9059 20.168 77.7619 20.5147 77.4739 20.792C77.1965 21.0587 76.8232 21.192 76.3539 21.192ZM85.3409 25.88V27.592H80.8289V25.88H85.3409ZM84.1409 31.16C83.2022 31.16 82.3702 30.9733 81.6449 30.6C80.9195 30.216 80.3489 29.688 79.9329 29.016C79.5169 28.3333 79.3089 27.56 79.3089 26.696C79.3089 25.8213 79.5169 25.048 79.9329 24.376C80.3489 23.704 80.9195 23.1813 81.6449 22.808C82.3702 22.424 83.2022 22.232 84.1409 22.232C84.9729 22.232 85.7142 22.3707 86.3649 22.648C87.0262 22.9147 87.5809 23.304 88.0289 23.816L86.5889 25.16C86.2795 24.8293 85.9275 24.5787 85.5329 24.408C85.1382 24.2373 84.7062 24.152 84.2369 24.152C83.7249 24.152 83.2662 24.2587 82.8609 24.472C82.4662 24.6853 82.1569 24.984 81.9329 25.368C81.7195 25.752 81.6129 26.1947 81.6129 26.696C81.6129 27.208 81.7195 27.656 81.9329 28.04C82.1569 28.424 82.4662 28.7227 82.8609 28.936C83.2662 29.1493 83.7249 29.256 84.2369 29.256C84.7062 29.256 85.1382 29.1707 85.5329 29C85.9275 28.8187 86.2795 28.5627 86.5889 28.232L88.0289 29.56C87.5809 30.0827 87.0262 30.4827 86.3649 30.76C85.7142 31.0267 84.9729 31.16 84.1409 31.16ZM89.4656 31V22.392H91.9456V25.752H95.6896V22.392H98.1856V31H95.6896V27.784H91.9456V31H89.4656ZM102.415 31V23.864L102.975 24.44H99.503V22.392H107.807V24.44H104.335L104.895 23.864V31H102.415ZM109.138 31V22.392H111.618V27.512L115.81 22.392H118.098V31H115.618V25.88L111.442 31H109.138Z" fill="white"/>
<path d="M57.384 55.128C56.5947 55.128 55.8267 55.0053 55.08 54.76C54.344 54.5147 53.7413 54.184 53.272 53.768L54.008 52.504C54.3813 52.856 54.8667 53.144 55.464 53.368C56.0613 53.592 56.696 53.704 57.368 53.704C58.2213 53.704 58.8773 53.5227 59.336 53.16C59.7947 52.7973 60.024 52.312 60.024 51.704C60.024 51.288 59.9227 50.9253 59.72 50.616C59.5173 50.3067 59.1653 50.072 58.664 49.912C58.1733 49.7413 57.496 49.656 56.632 49.656H54.088L54.68 43.8H61V45.192H55.272L56.104 44.408L55.64 49.032L54.808 48.264H56.968C58.088 48.264 58.9893 48.408 59.672 48.696C60.3547 48.984 60.8507 49.384 61.16 49.896C61.4693 50.3973 61.624 50.9787 61.624 51.64C61.624 52.28 61.4693 52.8667 61.16 53.4C60.8507 53.9227 60.3813 54.344 59.752 54.664C59.1333 54.9733 58.344 55.128 57.384 55.128ZM67.5315 55.128C66.6568 55.128 65.8728 54.904 65.1795 54.456C64.4968 54.008 63.9528 53.3573 63.5475 52.504C63.1528 51.6507 62.9555 50.616 62.9555 49.4C62.9555 48.184 63.1528 47.1493 63.5475 46.296C63.9528 45.4427 64.4968 44.792 65.1795 44.344C65.8728 43.896 66.6568 43.672 67.5315 43.672C68.3955 43.672 69.1742 43.896 69.8675 44.344C70.5608 44.792 71.1048 45.4427 71.4995 46.296C71.8942 47.1493 72.0915 48.184 72.0915 49.4C72.0915 50.616 71.8942 51.6507 71.4995 52.504C71.1048 53.3573 70.5608 54.008 69.8675 54.456C69.1742 54.904 68.3955 55.128 67.5315 55.128ZM67.5315 53.704C68.1182 53.704 68.6302 53.544 69.0675 53.224C69.5155 52.904 69.8622 52.424 70.1075 51.784C70.3635 51.144 70.4915 50.3493 70.4915 49.4C70.4915 48.4507 70.3635 47.656 70.1075 47.016C69.8622 46.376 69.5155 45.896 69.0675 45.576C68.6302 45.256 68.1182 45.096 67.5315 45.096C66.9448 45.096 66.4275 45.256 65.9795 45.576C65.5315 45.896 65.1795 46.376 64.9235 47.016C64.6782 47.656 64.5555 48.4507 64.5555 49.4C64.5555 50.3493 64.6782 51.144 64.9235 51.784C65.1795 52.424 65.5315 52.904 65.9795 53.224C66.4275 53.544 66.9448 53.704 67.5315 53.704ZM75.5634 52.952L75.5954 50.984L80.4754 46.52H82.3314L78.5874 50.2L77.7554 50.904L75.5634 52.952ZM74.3154 55V43.128H75.8514V55H74.3154ZM80.7954 55L77.4674 50.872L78.4594 49.64L82.6834 55H80.7954ZM86.3434 52.904V45.896H87.6874V52.904H86.3434ZM83.4314 50.04V48.776H90.5994V50.04H83.4314ZM103.601 55L100.321 50.872L101.585 50.104L105.409 55H103.601ZM97.4568 55V46.52H98.9928V55H97.4568ZM98.5288 51.416V50.104H101.329V51.416H98.5288ZM101.713 50.936L100.289 50.744L103.537 46.52H105.185L101.713 50.936ZM105.611 54.984L105.707 53.688C105.782 53.6987 105.851 53.7093 105.915 53.72C105.979 53.7307 106.038 53.736 106.091 53.736C106.433 53.736 106.699 53.6187 106.891 53.384C107.094 53.1493 107.243 52.84 107.339 52.456C107.435 52.0613 107.505 51.6187 107.547 51.128C107.59 50.6373 107.622 50.1467 107.643 49.656L107.787 46.52H114.299V55H112.763V47.416L113.131 47.864H108.779L109.131 47.4L109.019 49.752C108.987 50.4987 108.929 51.1973 108.843 51.848C108.758 52.4987 108.625 53.0693 108.443 53.56C108.273 54.0507 108.033 54.4347 107.723 54.712C107.425 54.9893 107.035 55.128 106.555 55.128C106.417 55.128 106.267 55.112 106.107 55.08C105.958 55.0587 105.793 55.0267 105.611 54.984ZM117.269 55V46.52H118.805V55H117.269ZM118.037 44.888C117.739 44.888 117.488 44.792 117.285 44.6C117.093 44.408 116.997 44.1733 116.997 43.896C116.997 43.608 117.093 43.368 117.285 43.176C117.488 42.984 117.739 42.888 118.037 42.888C118.336 42.888 118.581 42.984 118.773 43.176C118.976 43.3573 119.077 43.5867 119.077 43.864C119.077 44.152 118.981 44.3973 118.789 44.6C118.597 44.792 118.347 44.888 118.037 44.888ZM126.729 50.248V51.4H121.961V50.248H126.729ZM125.593 55.096C124.707 55.096 123.918 54.9147 123.225 54.552C122.542 54.1787 122.003 53.6613 121.609 53C121.214 52.3387 121.017 51.592 121.017 50.76C121.017 49.9173 121.214 49.1707 121.609 48.52C122.003 47.8693 122.542 47.3573 123.225 46.984C123.918 46.6 124.707 46.408 125.593 46.408C126.329 46.408 127.001 46.5253 127.609 46.76C128.217 46.9947 128.729 47.3413 129.145 47.8L128.249 48.68C127.897 48.3387 127.502 48.088 127.065 47.928C126.627 47.7573 126.153 47.672 125.641 47.672C125.033 47.672 124.483 47.8053 123.993 48.072C123.513 48.3387 123.134 48.7067 122.857 49.176C122.579 49.6347 122.441 50.1627 122.441 50.76C122.441 51.3573 122.579 51.8907 122.857 52.36C123.134 52.8293 123.513 53.1973 123.993 53.464C124.483 53.72 125.033 53.848 125.641 53.848C126.153 53.848 126.627 53.768 127.065 53.608C127.502 53.4373 127.897 53.176 128.249 52.824L129.145 53.72C128.729 54.168 128.217 54.5093 127.609 54.744C127.001 54.9787 126.329 55.096 125.593 55.096ZM131.035 55V46.52H132.571V50.12H137.403V46.52H138.939V55H137.403V51.448H132.571V55H131.035ZM143.606 55V47.464L143.99 47.864H140.502V46.52H148.246V47.864H144.774L145.141 47.464V55H143.606ZM149.816 55V46.52H151.352V55H149.816ZM150.584 44.888C150.285 44.888 150.035 44.792 149.832 44.6C149.64 44.408 149.544 44.1733 149.544 43.896C149.544 43.608 149.64 43.368 149.832 43.176C150.035 42.984 150.285 42.888 150.584 42.888C150.883 42.888 151.128 42.984 151.32 43.176C151.523 43.3573 151.624 43.5867 151.624 43.864C151.624 44.152 151.528 44.3973 151.336 44.6C151.144 44.792 150.893 44.888 150.584 44.888ZM154.347 55V46.52H158.283C159.275 46.52 160.054 46.712 160.619 47.096C161.195 47.4693 161.483 48.0027 161.483 48.696C161.483 49.3893 161.211 49.928 160.667 50.312C160.134 50.6853 159.425 50.872 158.539 50.872L158.779 50.456C159.793 50.456 160.545 50.6427 161.035 51.016C161.526 51.3893 161.771 51.9387 161.771 52.664C161.771 53.4 161.494 53.976 160.939 54.392C160.395 54.7973 159.558 55 158.427 55H154.347ZM155.851 53.816H158.315C158.955 53.816 159.435 53.72 159.755 53.528C160.075 53.3253 160.235 53.0053 160.235 52.568C160.235 52.12 160.086 51.7947 159.787 51.592C159.499 51.3787 159.041 51.272 158.411 51.272H155.851V53.816ZM155.851 50.168H158.155C158.742 50.168 159.185 50.0613 159.483 49.848C159.793 49.624 159.947 49.3147 159.947 48.92C159.947 48.5147 159.793 48.2107 159.483 48.008C159.185 47.8053 158.742 47.704 158.155 47.704H155.851V50.168Z" fill="white"/>
<rect y="76" width="350" height="231" rx="50" fill="url(#paint1_linear_13_211)"/>
<path d="M60.12 104.88V99.44H57.304L57.256 100.544C57.2347 101.003 57.208 101.44 57.176 101.856C57.144 102.272 57.08 102.651 56.984 102.992C56.8987 103.323 56.7707 103.605 56.6 103.84C56.4293 104.064 56.2 104.219 55.912 104.304L53.448 103.952C53.7573 103.952 54.008 103.861 54.2 103.68C54.392 103.488 54.5413 103.227 54.648 102.896C54.7547 102.555 54.8347 102.171 54.888 101.744C54.9413 101.307 54.9787 100.848 55 100.368L55.112 97.392H62.616V104.88H60.12ZM53.16 107.856V103.952H63.848V107.856H61.528V106H55.48V107.856H53.16ZM69.4508 106.128C68.5334 106.128 67.7174 105.936 67.0028 105.552C66.2988 105.168 65.7388 104.645 65.3228 103.984C64.9174 103.312 64.7148 102.549 64.7148 101.696C64.7148 100.832 64.9174 100.069 65.3228 99.408C65.7388 98.736 66.2988 98.2133 67.0028 97.84C67.7174 97.456 68.5334 97.264 69.4508 97.264C70.3574 97.264 71.1681 97.456 71.8828 97.84C72.5974 98.2133 73.1574 98.7307 73.5628 99.392C73.9681 100.053 74.1708 100.821 74.1708 101.696C74.1708 102.549 73.9681 103.312 73.5628 103.984C73.1574 104.645 72.5974 105.168 71.8828 105.552C71.1681 105.936 70.3574 106.128 69.4508 106.128ZM69.4508 104.08C69.8668 104.08 70.2401 103.984 70.5708 103.792C70.9014 103.6 71.1628 103.328 71.3548 102.976C71.5468 102.613 71.6428 102.187 71.6428 101.696C71.6428 101.195 71.5468 100.768 71.3548 100.416C71.1628 100.064 70.9014 99.792 70.5708 99.6C70.2401 99.408 69.8668 99.312 69.4508 99.312C69.0348 99.312 68.6614 99.408 68.3307 99.6C68.0001 99.792 67.7334 100.064 67.5308 100.416C67.3388 100.768 67.2428 101.195 67.2428 101.696C67.2428 102.187 67.3388 102.613 67.5308 102.976C67.7334 103.328 68.0001 103.6 68.3307 103.792C68.6614 103.984 69.0348 104.08 69.4508 104.08ZM79.9835 106.128C79.0555 106.128 78.2288 105.941 77.5035 105.568C76.7782 105.184 76.2075 104.656 75.7915 103.984C75.3862 103.312 75.1835 102.549 75.1835 101.696C75.1835 100.832 75.3862 100.069 75.7915 99.408C76.2075 98.736 76.7782 98.2133 77.5035 97.84C78.2288 97.456 79.0555 97.264 79.9835 97.264C80.8902 97.264 81.6795 97.456 82.3515 97.84C83.0235 98.2133 83.5195 98.752 83.8395 99.456L81.9035 100.496C81.6795 100.091 81.3968 99.792 81.0555 99.6C80.7248 99.408 80.3622 99.312 79.9675 99.312C79.5408 99.312 79.1568 99.408 78.8155 99.6C78.4742 99.792 78.2022 100.064 77.9995 100.416C77.8075 100.768 77.7115 101.195 77.7115 101.696C77.7115 102.197 77.8075 102.624 77.9995 102.976C78.2022 103.328 78.4742 103.6 78.8155 103.792C79.1568 103.984 79.5408 104.08 79.9675 104.08C80.3622 104.08 80.7248 103.989 81.0555 103.808C81.3968 103.616 81.6795 103.312 81.9035 102.896L83.8395 103.952C83.5195 104.645 83.0235 105.184 82.3515 105.568C81.6795 105.941 80.8902 106.128 79.9835 106.128ZM85.3563 106V97.392H89.7563C90.8336 97.392 91.6763 97.5893 92.2843 97.984C92.8923 98.368 93.1962 98.912 93.1962 99.616C93.1962 100.32 92.9083 100.875 92.3323 101.28C91.7669 101.675 91.0149 101.872 90.0763 101.872L90.3323 101.296C91.3776 101.296 92.1563 101.488 92.6683 101.872C93.1909 102.256 93.4523 102.816 93.4523 103.552C93.4523 104.309 93.1643 104.907 92.5883 105.344C92.0123 105.781 91.1323 106 89.9483 106H85.3563ZM87.6443 104.304H89.7403C90.1989 104.304 90.5403 104.229 90.7643 104.08C90.9989 103.92 91.1163 103.68 91.1163 103.36C91.1163 103.029 91.0096 102.789 90.7963 102.64C90.5829 102.48 90.2469 102.4 89.7883 102.4H87.6443V104.304ZM87.6443 100.928H89.5323C89.9696 100.928 90.2949 100.848 90.5083 100.688C90.7323 100.528 90.8443 100.299 90.8443 100C90.8443 99.6907 90.7323 99.4613 90.5083 99.312C90.2949 99.1627 89.9696 99.088 89.5323 99.088H87.6443V100.928ZM95.2934 106V97.392H97.7894V106H95.2934ZM96.5414 96.192C96.0827 96.192 95.7094 96.0587 95.4214 95.792C95.1334 95.5253 94.9894 95.1947 94.9894 94.8C94.9894 94.4053 95.1334 94.0747 95.4214 93.808C95.7094 93.5413 96.0827 93.408 96.5414 93.408C97 93.408 97.3734 93.536 97.6614 93.792C97.9494 94.0373 98.0934 94.3573 98.0934 94.752C98.0934 95.168 97.9494 95.5147 97.6614 95.792C97.384 96.0587 97.0107 96.192 96.5414 96.192ZM106.104 104.88V99.44H103.288L103.24 100.544C103.219 101.003 103.192 101.44 103.16 101.856C103.128 102.272 103.064 102.651 102.968 102.992C102.883 103.323 102.755 103.605 102.584 103.84C102.414 104.064 102.184 104.219 101.896 104.304L99.4324 103.952C99.7417 103.952 99.9924 103.861 100.184 103.68C100.376 103.488 100.526 103.227 100.632 102.896C100.739 102.555 100.819 102.171 100.872 101.744C100.926 101.307 100.963 100.848 100.984 100.368L101.096 97.392H108.6V104.88H106.104ZM99.1444 107.856V103.952H109.832V107.856H107.512V106H101.464V107.856H99.1444Z" fill="white"/>
<path d="M55.656 134V123.44L56.344 124.192H53.128V122.8H57.24V134H55.656ZM63.3059 134.128C62.5165 134.128 61.7485 134.005 61.0019 133.76C60.2659 133.515 59.6632 133.184 59.1939 132.768L59.9299 131.504C60.3032 131.856 60.7885 132.144 61.3859 132.368C61.9832 132.592 62.6179 132.704 63.2899 132.704C64.1432 132.704 64.7992 132.523 65.2579 132.16C65.7165 131.797 65.9459 131.312 65.9459 130.704C65.9459 130.288 65.8445 129.925 65.6419 129.616C65.4392 129.307 65.0872 129.072 64.5859 128.912C64.0952 128.741 63.4179 128.656 62.5539 128.656H60.0099L60.6019 122.8H66.9219V124.192H61.1939L62.0259 123.408L61.5619 128.032L60.7299 127.264H62.8899C64.0099 127.264 64.9112 127.408 65.5939 127.696C66.2765 127.984 66.7725 128.384 67.0819 128.896C67.3912 129.397 67.5459 129.979 67.5459 130.64C67.5459 131.28 67.3912 131.867 67.0819 132.4C66.7725 132.923 66.3032 133.344 65.6739 133.664C65.0552 133.973 64.2659 134.128 63.3059 134.128ZM72.0934 131.904V124.896H73.4374V131.904H72.0934ZM69.1814 129.04V127.776H76.3494V129.04H69.1814ZM87.7028 134.096C86.9988 134.096 86.3534 133.936 85.7668 133.616C85.1908 133.285 84.7268 132.8 84.3748 132.16C84.0334 131.52 83.8628 130.72 83.8628 129.76C83.8628 128.8 84.0281 128 84.3588 127.36C84.7001 126.72 85.1588 126.24 85.7348 125.92C86.3214 125.6 86.9774 125.44 87.7028 125.44C88.5348 125.44 89.2708 125.621 89.9108 125.984C90.5508 126.347 91.0574 126.853 91.4308 127.504C91.8041 128.144 91.9908 128.896 91.9908 129.76C91.9908 130.624 91.8041 131.381 91.4308 132.032C91.0574 132.683 90.5508 133.189 89.9108 133.552C89.2708 133.915 88.5348 134.096 87.7028 134.096ZM83.2068 137.104V125.52H84.6788V127.808L84.5828 129.776L84.7428 131.744V137.104H83.2068ZM87.5748 132.752C88.1188 132.752 88.6041 132.629 89.0308 132.384C89.4681 132.139 89.8094 131.792 90.0548 131.344C90.3108 130.885 90.4388 130.357 90.4388 129.76C90.4388 129.152 90.3108 128.629 90.0548 128.192C89.8094 127.744 89.4681 127.397 89.0308 127.152C88.6041 126.907 88.1188 126.784 87.5748 126.784C87.0414 126.784 86.5561 126.907 86.1188 127.152C85.6921 127.397 85.3508 127.744 85.0948 128.192C84.8494 128.629 84.7268 129.152 84.7268 129.76C84.7268 130.357 84.8494 130.885 85.0948 131.344C85.3508 131.792 85.6921 132.139 86.1188 132.384C86.5561 132.629 87.0414 132.752 87.5748 132.752ZM97.8544 134.096C97.001 134.096 96.2437 133.909 95.5824 133.536C94.921 133.163 94.3984 132.651 94.0144 132C93.6304 131.339 93.4384 130.592 93.4384 129.76C93.4384 128.917 93.6304 128.171 94.0144 127.52C94.3984 126.869 94.921 126.363 95.5824 126C96.2437 125.627 97.001 125.44 97.8544 125.44C98.697 125.44 99.449 125.627 100.11 126C100.782 126.363 101.305 126.869 101.678 127.52C102.062 128.16 102.254 128.907 102.254 129.76C102.254 130.603 102.062 131.349 101.678 132C101.305 132.651 100.782 133.163 100.11 133.536C99.449 133.909 98.697 134.096 97.8544 134.096ZM97.8544 132.752C98.3984 132.752 98.8837 132.629 99.3104 132.384C99.7477 132.139 100.089 131.792 100.334 131.344C100.58 130.885 100.702 130.357 100.702 129.76C100.702 129.152 100.58 128.629 100.334 128.192C100.089 127.744 99.7477 127.397 99.3104 127.152C98.8837 126.907 98.3984 126.784 97.8544 126.784C97.3104 126.784 96.825 126.907 96.3984 127.152C95.9717 127.397 95.6304 127.744 95.3744 128.192C95.1184 128.629 94.9904 129.152 94.9904 129.76C94.9904 130.357 95.1184 130.885 95.3744 131.344C95.6304 131.792 95.9717 132.139 96.3984 132.384C96.825 132.629 97.3104 132.752 97.8544 132.752ZM110.616 134L107.336 129.872L108.6 129.104L112.424 134H110.616ZM104.472 134V125.52H106.008V134H104.472ZM105.544 130.416V129.104H108.344V130.416H105.544ZM108.728 129.936L107.304 129.744L110.552 125.52H112.2L108.728 129.936ZM114.035 134V125.52H115.571V134H114.035ZM114.803 123.888C114.504 123.888 114.254 123.792 114.051 123.6C113.859 123.408 113.763 123.173 113.763 122.896C113.763 122.608 113.859 122.368 114.051 122.176C114.254 121.984 114.504 121.888 114.803 121.888C115.102 121.888 115.347 121.984 115.539 122.176C115.742 122.357 115.843 122.587 115.843 122.864C115.843 123.152 115.747 123.397 115.555 123.6C115.363 123.792 115.112 123.888 114.803 123.888ZM118.566 134V125.52H122.502C123.494 125.52 124.273 125.712 124.838 126.096C125.414 126.469 125.702 127.003 125.702 127.696C125.702 128.389 125.43 128.928 124.886 129.312C124.353 129.685 123.643 129.872 122.758 129.872L122.998 129.456C124.011 129.456 124.763 129.643 125.254 130.016C125.745 130.389 125.99 130.939 125.99 131.664C125.99 132.4 125.713 132.976 125.158 133.392C124.614 133.797 123.777 134 122.646 134H118.566ZM120.07 132.816H122.534C123.174 132.816 123.654 132.72 123.974 132.528C124.294 132.325 124.454 132.005 124.454 131.568C124.454 131.12 124.305 130.795 124.006 130.592C123.718 130.379 123.259 130.272 122.63 130.272H120.07V132.816ZM120.07 129.168H122.374C122.961 129.168 123.403 129.061 123.702 128.848C124.011 128.624 124.166 128.315 124.166 127.92C124.166 127.515 124.011 127.211 123.702 127.008C123.403 126.805 122.961 126.704 122.374 126.704H120.07V129.168ZM138.483 133.28V126.864H134.803L134.723 128.496C134.702 129.029 134.664 129.547 134.611 130.048C134.568 130.539 134.494 130.992 134.387 131.408C134.291 131.824 134.147 132.165 133.955 132.432C133.763 132.699 133.507 132.864 133.187 132.928L131.667 132.656C131.998 132.667 132.264 132.56 132.467 132.336C132.67 132.101 132.824 131.781 132.931 131.376C133.048 130.971 133.134 130.512 133.187 130C133.24 129.477 133.283 128.939 133.315 128.384L133.443 125.52H140.019V133.28H138.483ZM131.331 135.968V132.656H141.315V135.968H139.875V134H132.787V135.968H131.331ZM146.948 134.096C146.095 134.096 145.337 133.909 144.676 133.536C144.015 133.163 143.492 132.651 143.108 132C142.724 131.339 142.532 130.592 142.532 129.76C142.532 128.917 142.724 128.171 143.108 127.52C143.492 126.869 144.015 126.363 144.676 126C145.337 125.627 146.095 125.44 146.948 125.44C147.791 125.44 148.543 125.627 149.204 126C149.876 126.363 150.399 126.869 150.772 127.52C151.156 128.16 151.348 128.907 151.348 129.76C151.348 130.603 151.156 131.349 150.772 132C150.399 132.651 149.876 133.163 149.204 133.536C148.543 133.909 147.791 134.096 146.948 134.096ZM146.948 132.752C147.492 132.752 147.977 132.629 148.404 132.384C148.841 132.139 149.183 131.792 149.428 131.344C149.673 130.885 149.796 130.357 149.796 129.76C149.796 129.152 149.673 128.629 149.428 128.192C149.183 127.744 148.841 127.397 148.404 127.152C147.977 126.907 147.492 126.784 146.948 126.784C146.404 126.784 145.919 126.907 145.492 127.152C145.065 127.397 144.724 127.744 144.468 128.192C144.212 128.629 144.084 129.152 144.084 129.76C144.084 130.357 144.212 130.885 144.468 131.344C144.724 131.792 145.065 132.139 145.492 132.384C145.919 132.629 146.404 132.752 146.948 132.752ZM157.262 134.096C156.398 134.096 155.625 133.909 154.942 133.536C154.27 133.163 153.742 132.651 153.358 132C152.974 131.349 152.782 130.603 152.782 129.76C152.782 128.917 152.974 128.171 153.358 127.52C153.742 126.869 154.27 126.363 154.942 126C155.625 125.627 156.398 125.44 157.262 125.44C158.03 125.44 158.713 125.595 159.31 125.904C159.918 126.203 160.387 126.651 160.718 127.248L159.55 128C159.273 127.584 158.931 127.28 158.526 127.088C158.131 126.885 157.705 126.784 157.246 126.784C156.691 126.784 156.195 126.907 155.758 127.152C155.321 127.397 154.974 127.744 154.718 128.192C154.462 128.629 154.334 129.152 154.334 129.76C154.334 130.368 154.462 130.896 154.718 131.344C154.974 131.792 155.321 132.139 155.758 132.384C156.195 132.629 156.691 132.752 157.246 132.752C157.705 132.752 158.131 132.656 158.526 132.464C158.931 132.261 159.273 131.952 159.55 131.536L160.718 132.272C160.387 132.859 159.918 133.312 159.31 133.632C158.713 133.941 158.03 134.096 157.262 134.096ZM162.707 134V125.52H166.643C167.635 125.52 168.413 125.712 168.979 126.096C169.555 126.469 169.843 127.003 169.843 127.696C169.843 128.389 169.571 128.928 169.027 129.312C168.493 129.685 167.784 129.872 166.899 129.872L167.139 129.456C168.152 129.456 168.904 129.643 169.395 130.016C169.885 130.389 170.131 130.939 170.131 131.664C170.131 132.4 169.853 132.976 169.299 133.392C168.755 133.797 167.917 134 166.787 134H162.707ZM164.211 132.816H166.675C167.315 132.816 167.795 132.72 168.115 132.528C168.435 132.325 168.595 132.005 168.595 131.568C168.595 131.12 168.445 130.795 168.147 130.592C167.859 130.379 167.4 130.272 166.771 130.272H164.211V132.816ZM164.211 129.168H166.515C167.101 129.168 167.544 129.061 167.843 128.848C168.152 128.624 168.307 128.315 168.307 127.92C168.307 127.515 168.152 127.211 167.843 127.008C167.544 126.805 167.101 126.704 166.515 126.704H164.211V129.168ZM172.535 134V125.52H174.071V134H172.535ZM173.303 123.888C173.004 123.888 172.754 123.792 172.551 123.6C172.359 123.408 172.263 123.173 172.263 122.896C172.263 122.608 172.359 122.368 172.551 122.176C172.754 121.984 173.004 121.888 173.303 121.888C173.602 121.888 173.847 121.984 174.039 122.176C174.242 122.357 174.343 122.587 174.343 122.864C174.343 123.152 174.247 123.397 174.055 123.6C173.863 123.792 173.612 123.888 173.303 123.888ZM182.858 133.28V126.864H179.178L179.098 128.496C179.077 129.029 179.039 129.547 178.986 130.048C178.943 130.539 178.869 130.992 178.762 131.408C178.666 131.824 178.522 132.165 178.33 132.432C178.138 132.699 177.882 132.864 177.562 132.928L176.042 132.656C176.373 132.667 176.639 132.56 176.842 132.336C177.045 132.101 177.199 131.781 177.306 131.376C177.423 130.971 177.509 130.512 177.562 130C177.615 129.477 177.658 128.939 177.69 128.384L177.818 125.52H184.394V133.28H182.858ZM175.706 135.968V132.656H185.69V135.968H184.25V134H177.162V135.968H175.706ZM188.123 137.2C187.718 137.2 187.323 137.131 186.939 136.992C186.555 136.864 186.224 136.672 185.947 136.416L186.603 135.264C186.816 135.467 187.051 135.621 187.307 135.728C187.563 135.835 187.835 135.888 188.123 135.888C188.496 135.888 188.806 135.792 189.051 135.6C189.296 135.408 189.526 135.067 189.739 134.576L190.267 133.408L190.427 133.216L193.755 125.52H195.259L191.147 134.848C190.902 135.445 190.624 135.915 190.315 136.256C190.016 136.597 189.686 136.837 189.323 136.976C188.96 137.125 188.56 137.2 188.123 137.2ZM190.139 134.272L186.267 125.52H187.867L191.163 133.072L190.139 134.272Z" fill="white"/>
<rect y="152" width="350" height="151" rx="50" fill="url(#paint2_linear_13_211)"/>
<path d="M57.2 187V178.392H61.6C62.6773 178.392 63.52 178.589 64.128 178.984C64.736 179.368 65.04 179.912 65.04 180.616C65.04 181.32 64.752 181.875 64.176 182.28C63.6107 182.675 62.8587 182.872 61.92 182.872L62.176 182.296C63.2213 182.296 64 182.488 64.512 182.872C65.0347 183.256 65.296 183.816 65.296 184.552C65.296 185.309 65.008 185.907 64.432 186.344C63.856 186.781 62.976 187 61.792 187H57.2ZM59.488 185.304H61.584C62.0427 185.304 62.384 185.229 62.608 185.08C62.8427 184.92 62.96 184.68 62.96 184.36C62.96 184.029 62.8533 183.789 62.64 183.64C62.4267 183.48 62.0907 183.4 61.632 183.4H59.488V185.304ZM59.488 181.928H61.376C61.8133 181.928 62.1387 181.848 62.352 181.688C62.576 181.528 62.688 181.299 62.688 181C62.688 180.691 62.576 180.461 62.352 180.312C62.1387 180.163 61.8133 180.088 61.376 180.088H59.488V181.928ZM67.1371 187V178.392H69.6331V187H67.1371ZM68.3851 177.192C67.9265 177.192 67.5531 177.059 67.2651 176.792C66.9771 176.525 66.8331 176.195 66.8331 175.8C66.8331 175.405 66.9771 175.075 67.2651 174.808C67.5531 174.541 67.9265 174.408 68.3851 174.408C68.8438 174.408 69.2171 174.536 69.5051 174.792C69.7931 175.037 69.9371 175.357 69.9371 175.752C69.9371 176.168 69.7931 176.515 69.5051 176.792C69.2278 177.059 68.8545 177.192 68.3851 177.192ZM77.9481 185.88V180.44H75.1321L75.0841 181.544C75.0628 182.003 75.0361 182.44 75.0041 182.856C74.9721 183.272 74.9081 183.651 74.8121 183.992C74.7268 184.323 74.5988 184.605 74.4281 184.84C74.2575 185.064 74.0281 185.219 73.7401 185.304L71.2761 184.952C71.5855 184.952 71.8361 184.861 72.0281 184.68C72.2201 184.488 72.3695 184.227 72.4761 183.896C72.5828 183.555 72.6628 183.171 72.7161 182.744C72.7695 182.307 72.8068 181.848 72.8281 181.368L72.9401 178.392H80.4441V185.88H77.9481ZM70.9881 188.856V184.952H81.6761V188.856H79.3561V187H73.3081V188.856H70.9881ZM89.1669 185.88V180.44H86.3509L86.3029 181.544C86.2815 182.003 86.2549 182.44 86.2229 182.856C86.1909 183.272 86.1269 183.651 86.0309 183.992C85.9455 184.323 85.8175 184.605 85.6469 184.84C85.4762 185.064 85.2469 185.219 84.9589 185.304L82.4949 184.952C82.8042 184.952 83.0549 184.861 83.2469 184.68C83.4389 184.488 83.5882 184.227 83.6949 183.896C83.8015 183.555 83.8815 183.171 83.9349 182.744C83.9882 182.307 84.0255 181.848 84.0469 181.368L84.1589 178.392H91.6629V185.88H89.1669ZM82.2069 188.856V184.952H92.8949V188.856H90.5749V187H84.5269V188.856H82.2069ZM94.4496 187V178.392H96.9456V187H94.4496ZM95.6976 177.192C95.239 177.192 94.8656 177.059 94.5776 176.792C94.2896 176.525 94.1456 176.195 94.1456 175.8C94.1456 175.405 94.2896 175.075 94.5776 174.808C94.8656 174.541 95.239 174.408 95.6976 174.408C96.1563 174.408 96.5296 174.536 96.8176 174.792C97.1056 175.037 97.2496 175.357 97.2496 175.752C97.2496 176.168 97.1056 176.515 96.8176 176.792C96.5403 177.059 96.167 177.192 95.6976 177.192ZM98.2526 186.984L98.3806 184.936C98.4446 184.947 98.5086 184.957 98.5726 184.968C98.6366 184.968 98.6953 184.968 98.7486 184.968C99.0473 184.968 99.282 184.883 99.4526 184.712C99.6233 184.541 99.7513 184.312 99.8366 184.024C99.922 183.725 99.9806 183.389 100.013 183.016C100.055 182.643 100.087 182.253 100.109 181.848L100.237 178.392H107.597V187H105.101V179.832L105.661 180.44H101.885L102.413 179.8L102.301 181.96C102.269 182.728 102.205 183.432 102.109 184.072C102.023 184.712 101.879 185.267 101.677 185.736C101.474 186.195 101.202 186.552 100.861 186.808C100.519 187.053 100.082 187.176 99.5486 187.176C99.3566 187.176 99.154 187.16 98.9406 187.128C98.7273 187.096 98.498 187.048 98.2526 186.984ZM114.205 187.128C113.224 187.128 112.36 186.936 111.613 186.552C110.877 186.168 110.306 185.645 109.901 184.984C109.496 184.312 109.293 183.549 109.293 182.696C109.293 181.832 109.49 181.069 109.885 180.408C110.29 179.736 110.84 179.213 111.533 178.84C112.226 178.456 113.01 178.264 113.885 178.264C114.728 178.264 115.485 178.445 116.157 178.808C116.84 179.16 117.378 179.672 117.773 180.344C118.168 181.005 118.365 181.8 118.365 182.728C118.365 182.824 118.36 182.936 118.349 183.064C118.338 183.181 118.328 183.293 118.317 183.4H111.325V181.944H117.005L116.045 182.376C116.045 181.928 115.954 181.539 115.773 181.208C115.592 180.877 115.341 180.621 115.021 180.44C114.701 180.248 114.328 180.152 113.901 180.152C113.474 180.152 113.096 180.248 112.765 180.44C112.445 180.621 112.194 180.883 112.013 181.224C111.832 181.555 111.741 181.949 111.741 182.408V182.792C111.741 183.261 111.842 183.677 112.045 184.04C112.258 184.392 112.552 184.664 112.925 184.856C113.309 185.037 113.757 185.128 114.269 185.128C114.728 185.128 115.128 185.059 115.469 184.92C115.821 184.781 116.141 184.573 116.429 184.296L117.757 185.736C117.362 186.184 116.866 186.531 116.269 186.776C115.672 187.011 114.984 187.128 114.205 187.128ZM120.278 187V178.392H122.758V181.752H126.502V178.392H128.998V187H126.502V183.784H122.758V187H120.278ZM131.388 187V178.392H133.868V181.752H137.612V178.392H140.108V187H137.612V183.784H133.868V187H131.388ZM147.921 187V184.136L148.273 184.536H145.889C144.652 184.536 143.681 184.28 142.977 183.768C142.273 183.256 141.921 182.52 141.921 181.56C141.921 180.536 142.289 179.752 143.025 179.208C143.772 178.664 144.774 178.392 146.033 178.392H150.145V187H147.921ZM141.793 187L144.081 183.72H146.625L144.449 187H141.793ZM147.921 183.368V179.784L148.273 180.424H146.081C145.569 180.424 145.169 180.52 144.881 180.712C144.604 180.904 144.465 181.213 144.465 181.64C144.465 182.461 144.993 182.872 146.049 182.872H148.273L147.921 183.368Z" fill="white"/>
<path d="M56.592 211V209.912L61.152 205.512C61.5573 205.128 61.856 204.792 62.048 204.504C62.2507 204.205 62.384 203.933 62.448 203.688C62.5227 203.432 62.56 203.187 62.56 202.952C62.56 202.376 62.3573 201.923 61.952 201.592C61.5467 201.261 60.9547 201.096 60.176 201.096C59.5787 201.096 59.04 201.197 58.56 201.4C58.08 201.592 57.664 201.896 57.312 202.312L56.224 201.368C56.6507 200.824 57.2213 200.408 57.936 200.12C58.6613 199.821 59.456 199.672 60.32 199.672C61.0987 199.672 61.776 199.8 62.352 200.056C62.928 200.301 63.3707 200.659 63.68 201.128C64 201.597 64.16 202.152 64.16 202.792C64.16 203.155 64.112 203.512 64.016 203.864C63.92 204.216 63.7387 204.589 63.472 204.984C63.2053 205.379 62.8213 205.821 62.32 206.312L58.256 210.232L57.872 209.608H64.64V211H56.592ZM69.5715 211.128C68.7822 211.128 68.0142 211.005 67.2675 210.76C66.5315 210.515 65.9288 210.184 65.4595 209.768L66.1955 208.504C66.5688 208.856 67.0542 209.144 67.6515 209.368C68.2488 209.592 68.8835 209.704 69.5555 209.704C70.4088 209.704 71.0648 209.523 71.5235 209.16C71.9822 208.797 72.2115 208.312 72.2115 207.704C72.2115 207.288 72.1102 206.925 71.9075 206.616C71.7048 206.307 71.3528 206.072 70.8515 205.912C70.3608 205.741 69.6835 205.656 68.8195 205.656H66.2755L66.8675 199.8H73.1875V201.192H67.4595L68.2915 200.408L67.8275 205.032L66.9955 204.264H69.1555C70.2755 204.264 71.1768 204.408 71.8595 204.696C72.5422 204.984 73.0382 205.384 73.3475 205.896C73.6568 206.397 73.8115 206.979 73.8115 207.64C73.8115 208.28 73.6568 208.867 73.3475 209.4C73.0382 209.923 72.5688 210.344 71.9395 210.664C71.3208 210.973 70.5315 211.128 69.5715 211.128ZM80.1599 211V202.52H84.0959C85.0879 202.52 85.8665 202.712 86.4319 203.096C87.0079 203.469 87.2959 204.003 87.2959 204.696C87.2959 205.389 87.0239 205.928 86.4799 206.312C85.9465 206.685 85.2372 206.872 84.3519 206.872L84.5919 206.456C85.6052 206.456 86.3572 206.643 86.8479 207.016C87.3385 207.389 87.5839 207.939 87.5839 208.664C87.5839 209.4 87.3065 209.976 86.7519 210.392C86.2079 210.797 85.3705 211 84.2399 211H80.1599ZM81.6639 209.816H84.1279C84.7679 209.816 85.2479 209.72 85.5679 209.528C85.8879 209.325 86.0479 209.005 86.0479 208.568C86.0479 208.12 85.8985 207.795 85.5999 207.592C85.3119 207.379 84.8532 207.272 84.2239 207.272H81.6639V209.816ZM81.6639 206.168H83.9679C84.5545 206.168 84.9972 206.061 85.2959 205.848C85.6052 205.624 85.7599 205.315 85.7599 204.92C85.7599 204.515 85.6052 204.211 85.2959 204.008C84.9972 203.805 84.5545 203.704 83.9679 203.704H81.6639V206.168ZM89.988 211V202.52H91.524V211H89.988ZM90.756 200.888C90.4573 200.888 90.2067 200.792 90.004 200.6C89.812 200.408 89.716 200.173 89.716 199.896C89.716 199.608 89.812 199.368 90.004 199.176C90.2067 198.984 90.4573 198.888 90.756 198.888C91.0547 198.888 91.3 198.984 91.492 199.176C91.6947 199.357 91.796 199.587 91.796 199.864C91.796 200.152 91.7 200.397 91.508 200.6C91.316 200.792 91.0653 200.888 90.756 200.888ZM100.311 210.28V203.864H96.6313L96.5513 205.496C96.5299 206.029 96.4926 206.547 96.4393 207.048C96.3966 207.539 96.3219 207.992 96.2153 208.408C96.1193 208.824 95.9753 209.165 95.7833 209.432C95.5913 209.699 95.3353 209.864 95.0153 209.928L93.4953 209.656C93.8259 209.667 94.0926 209.56 94.2953 209.336C94.4979 209.101 94.6526 208.781 94.7593 208.376C94.8766 207.971 94.9619 207.512 95.0153 207C95.0686 206.477 95.1113 205.939 95.1432 205.384L95.2713 202.52H101.847V210.28H100.311ZM93.1593 212.968V209.656H103.143V212.968H101.703V211H94.6153V212.968H93.1593ZM110.936 210.28V203.864H107.256L107.176 205.496C107.155 206.029 107.118 206.547 107.064 207.048C107.022 207.539 106.947 207.992 106.84 208.408C106.744 208.824 106.6 209.165 106.408 209.432C106.216 209.699 105.96 209.864 105.64 209.928L104.12 209.656C104.451 209.667 104.718 209.56 104.92 209.336C105.123 209.101 105.278 208.781 105.384 208.376C105.502 207.971 105.587 207.512 105.64 207C105.694 206.477 105.736 205.939 105.768 205.384L105.896 202.52H112.472V210.28H110.936ZM103.784 212.968V209.656H113.768V212.968H112.328V211H105.24V212.968H103.784ZM115.769 211V202.52H117.305V211H115.769ZM116.537 200.888C116.239 200.888 115.988 200.792 115.785 200.6C115.593 200.408 115.497 200.173 115.497 199.896C115.497 199.608 115.593 199.368 115.785 199.176C115.988 198.984 116.239 198.888 116.537 198.888C116.836 198.888 117.081 198.984 117.273 199.176C117.476 199.357 117.577 199.587 117.577 199.864C117.577 200.152 117.481 200.397 117.289 200.6C117.097 200.792 116.847 200.888 116.537 200.888ZM118.893 210.984L118.989 209.688C119.063 209.699 119.133 209.709 119.197 209.72C119.261 209.731 119.319 209.736 119.373 209.736C119.714 209.736 119.981 209.619 120.173 209.384C120.375 209.149 120.525 208.84 120.621 208.456C120.717 208.061 120.786 207.619 120.829 207.128C120.871 206.637 120.903 206.147 120.924 205.656L121.069 202.52H127.581V211H126.045V203.416L126.413 203.864H122.061L122.413 203.4L122.301 205.752C122.269 206.499 122.21 207.197 122.125 207.848C122.039 208.499 121.906 209.069 121.725 209.56C121.554 210.051 121.314 210.435 121.005 210.712C120.706 210.989 120.317 211.128 119.837 211.128C119.698 211.128 119.549 211.112 119.389 211.08C119.239 211.059 119.074 211.027 118.893 210.984ZM134.327 211.096C133.42 211.096 132.62 210.909 131.927 210.536C131.244 210.163 130.711 209.651 130.327 209C129.953 208.349 129.767 207.603 129.767 206.76C129.767 205.917 129.948 205.171 130.311 204.52C130.684 203.869 131.191 203.363 131.831 203C132.481 202.627 133.212 202.44 134.023 202.44C134.844 202.44 135.569 202.621 136.199 202.984C136.828 203.347 137.319 203.859 137.671 204.52C138.033 205.171 138.215 205.933 138.215 206.808C138.215 206.872 138.209 206.947 138.199 207.032C138.199 207.117 138.193 207.197 138.183 207.272H130.967V206.168H137.383L136.759 206.552C136.769 206.008 136.657 205.523 136.423 205.096C136.188 204.669 135.863 204.339 135.447 204.104C135.041 203.859 134.567 203.736 134.023 203.736C133.489 203.736 133.015 203.859 132.599 204.104C132.183 204.339 131.857 204.675 131.623 205.112C131.388 205.539 131.271 206.029 131.271 206.584V206.84C131.271 207.405 131.399 207.912 131.655 208.36C131.921 208.797 132.289 209.139 132.759 209.384C133.228 209.629 133.767 209.752 134.375 209.752C134.876 209.752 135.329 209.667 135.735 209.496C136.151 209.325 136.513 209.069 136.823 208.728L137.671 209.72C137.287 210.168 136.807 210.509 136.231 210.744C135.665 210.979 135.031 211.096 134.327 211.096ZM140.597 211V202.52H142.133V206.12H146.965V202.52H148.501V211H146.965V207.448H142.133V211H140.597ZM155.408 205.4C156.485 205.411 157.307 205.656 157.872 206.136C158.437 206.616 158.72 207.293 158.72 208.168C158.72 209.085 158.411 209.795 157.792 210.296C157.173 210.787 156.299 211.027 155.168 211.016L151.488 211V202.52H153.024V205.384L155.408 205.4ZM155.04 209.848C155.733 209.859 156.256 209.72 156.608 209.432C156.971 209.144 157.152 208.717 157.152 208.152C157.152 207.597 156.976 207.192 156.624 206.936C156.272 206.68 155.744 206.547 155.04 206.536L153.024 206.504V209.832L155.04 209.848Z" fill="white"/>
<rect y="228" width="350" height="80" rx="40" fill="url(#paint3_linear_13_211)"/>
<path d="M57.2 266V257.392H59.68V260.752H63.424V257.392H65.92V266H63.424V262.784H59.68V266H57.2ZM73.4614 266V264.32L73.3014 263.952V260.944C73.3014 260.411 73.136 259.995 72.8054 259.696C72.4854 259.397 71.9894 259.248 71.3174 259.248C70.8587 259.248 70.4054 259.323 69.9574 259.472C69.52 259.611 69.1467 259.803 68.8374 260.048L67.9414 258.304C68.4107 257.973 68.976 257.717 69.6374 257.536C70.2987 257.355 70.9707 257.264 71.6534 257.264C72.9654 257.264 73.984 257.573 74.7094 258.192C75.4347 258.811 75.7974 259.776 75.7974 261.088V266H73.4614ZM70.8374 266.128C70.1654 266.128 69.5894 266.016 69.1094 265.792C68.6294 265.557 68.2614 265.243 68.0054 264.848C67.7494 264.453 67.6214 264.011 67.6214 263.52C67.6214 263.008 67.744 262.56 67.9894 262.176C68.2454 261.792 68.6454 261.493 69.1894 261.28C69.7334 261.056 70.4427 260.944 71.3174 260.944H73.6054V262.4H71.5894C71.0027 262.4 70.5974 262.496 70.3734 262.688C70.16 262.88 70.0534 263.12 70.0534 263.408C70.0534 263.728 70.176 263.984 70.4214 264.176C70.6774 264.357 71.024 264.448 71.4614 264.448C71.8774 264.448 72.2507 264.352 72.5814 264.16C72.912 263.957 73.152 263.664 73.3014 263.28L73.6854 264.432C73.504 264.987 73.1734 265.408 72.6934 265.696C72.2134 265.984 71.5947 266.128 70.8374 266.128ZM83.8856 264.88V259.44H81.0696L81.0216 260.544C81.0003 261.003 80.9736 261.44 80.9416 261.856C80.9096 262.272 80.8456 262.651 80.7496 262.992C80.6643 263.323 80.5363 263.605 80.3656 263.84C80.195 264.064 79.9656 264.219 79.6776 264.304L77.2136 263.952C77.523 263.952 77.7736 263.861 77.9656 263.68C78.1576 263.488 78.307 263.227 78.4136 262.896C78.5203 262.555 78.6003 262.171 78.6536 261.744C78.707 261.307 78.7443 260.848 78.7656 260.368L78.8776 257.392H86.3816V264.88H83.8856ZM76.9256 267.856V263.952H87.6136V267.856H85.2936V266H79.2456V267.856H76.9256ZM89.1684 266V257.392H91.6644V266H89.1684ZM90.4164 256.192C89.9577 256.192 89.5844 256.059 89.2964 255.792C89.0084 255.525 88.8644 255.195 88.8644 254.8C88.8644 254.405 89.0084 254.075 89.2964 253.808C89.5844 253.541 89.9577 253.408 90.4164 253.408C90.875 253.408 91.2484 253.536 91.5364 253.792C91.8244 254.037 91.9684 254.357 91.9684 254.752C91.9684 255.168 91.8244 255.515 91.5364 255.792C91.259 256.059 90.8857 256.192 90.4164 256.192ZM94.0594 266V257.392H96.5394V262.512L100.731 257.392H103.019V266H100.539V260.88L96.3634 266H94.0594ZM98.3794 256.464C97.4407 256.464 96.7367 256.261 96.2674 255.856C95.798 255.44 95.558 254.816 95.5474 253.984H97.1794C97.19 254.347 97.2914 254.635 97.4834 254.848C97.6754 255.061 97.9687 255.168 98.3634 255.168C98.7474 255.168 99.0407 255.061 99.2434 254.848C99.4567 254.635 99.5634 254.347 99.5634 253.984H101.227C101.227 254.816 100.987 255.44 100.507 255.856C100.027 256.261 99.318 256.464 98.3794 256.464ZM105.419 266V257.392H107.899V260.752H111.643V257.392H114.139V266H111.643V262.784H107.899V266H105.419ZM116.512 266V257.392H119.008V266H116.512ZM117.76 256.192C117.301 256.192 116.928 256.059 116.64 255.792C116.352 255.525 116.208 255.195 116.208 254.8C116.208 254.405 116.352 254.075 116.64 253.808C116.928 253.541 117.301 253.408 117.76 253.408C118.219 253.408 118.592 253.536 118.88 253.792C119.168 254.037 119.312 254.357 119.312 254.752C119.312 255.168 119.168 255.515 118.88 255.792C118.603 256.059 118.229 256.192 117.76 256.192ZM125.499 266.128C124.571 266.128 123.744 265.941 123.019 265.568C122.294 265.184 121.723 264.656 121.307 263.984C120.902 263.312 120.699 262.549 120.699 261.696C120.699 260.832 120.902 260.069 121.307 259.408C121.723 258.736 122.294 258.213 123.019 257.84C123.744 257.456 124.571 257.264 125.499 257.264C126.406 257.264 127.195 257.456 127.867 257.84C128.539 258.213 129.035 258.752 129.355 259.456L127.419 260.496C127.195 260.091 126.912 259.792 126.571 259.6C126.24 259.408 125.878 259.312 125.483 259.312C125.056 259.312 124.672 259.408 124.331 259.6C123.99 259.792 123.718 260.064 123.515 260.416C123.323 260.768 123.227 261.195 123.227 261.696C123.227 262.197 123.323 262.624 123.515 262.976C123.718 263.328 123.99 263.6 124.331 263.792C124.672 263.984 125.056 264.08 125.483 264.08C125.878 264.08 126.24 263.989 126.571 263.808C126.912 263.616 127.195 263.312 127.419 262.896L129.355 263.952C129.035 264.645 128.539 265.184 127.867 265.568C127.195 265.941 126.406 266.128 125.499 266.128ZM132.696 266V258.864L133.256 259.44H129.784V257.392H138.088V259.44H134.616L135.176 258.864V266H132.696ZM144.075 260.144C145.205 260.155 146.064 260.411 146.651 260.912C147.248 261.403 147.547 262.101 147.547 263.008C147.547 263.957 147.211 264.699 146.539 265.232C145.867 265.755 144.933 266.016 143.739 266.016L139.419 266V257.392H141.899V260.144H144.075ZM143.515 264.24C143.995 264.251 144.363 264.149 144.619 263.936C144.875 263.723 145.003 263.403 145.003 262.976C145.003 262.549 144.875 262.245 144.619 262.064C144.363 261.872 143.995 261.771 143.515 261.76L141.899 261.744V264.24H143.515Z" fill="#060606"/>
<path d="M60.4 279.672C61.4133 279.672 62.2667 279.891 62.96 280.328C63.664 280.765 64.1973 281.4 64.56 282.232C64.9227 283.053 65.104 284.061 65.104 285.256C65.104 286.525 64.88 287.597 64.432 288.472C63.984 289.347 63.3653 290.008 62.576 290.456C61.7867 290.904 60.864 291.128 59.808 291.128C59.2853 291.128 58.7787 291.075 58.288 290.968C57.808 290.861 57.3867 290.696 57.024 290.472L57.632 289.224C57.9307 289.416 58.2613 289.555 58.624 289.64C58.9973 289.715 59.3867 289.752 59.792 289.752C60.9227 289.752 61.824 289.4 62.496 288.696C63.168 287.981 63.504 286.925 63.504 285.528C63.504 285.304 63.4933 285.037 63.472 284.728C63.4507 284.419 63.4027 284.115 63.328 283.816L63.856 284.36C63.7067 284.851 63.456 285.267 63.104 285.608C62.7627 285.939 62.3467 286.189 61.856 286.36C61.376 286.52 60.848 286.6 60.272 286.6C59.536 286.6 58.88 286.461 58.304 286.184C57.728 285.907 57.2747 285.517 56.944 285.016C56.6133 284.504 56.448 283.901 56.448 283.208C56.448 282.483 56.6187 281.859 56.96 281.336C57.312 280.803 57.7867 280.392 58.384 280.104C58.992 279.816 59.664 279.672 60.4 279.672ZM60.464 280.968C59.984 280.968 59.5573 281.059 59.184 281.24C58.8107 281.421 58.5173 281.672 58.304 281.992C58.1013 282.312 58 282.696 58 283.144C58 283.805 58.2293 284.333 58.688 284.728C59.1467 285.112 59.7653 285.304 60.544 285.304C61.056 285.304 61.504 285.208 61.888 285.016C62.2827 284.824 62.5867 284.563 62.8 284.232C63.024 283.901 63.136 283.533 63.136 283.128C63.136 282.733 63.0347 282.376 62.832 282.056C62.6293 281.736 62.3307 281.475 61.936 281.272C61.5413 281.069 61.0507 280.968 60.464 280.968ZM70.275 279.672C71.2883 279.672 72.1417 279.891 72.835 280.328C73.539 280.765 74.0723 281.4 74.435 282.232C74.7977 283.053 74.979 284.061 74.979 285.256C74.979 286.525 74.755 287.597 74.307 288.472C73.859 289.347 73.2403 290.008 72.451 290.456C71.6617 290.904 70.739 291.128 69.683 291.128C69.1603 291.128 68.6537 291.075 68.163 290.968C67.683 290.861 67.2617 290.696 66.899 290.472L67.507 289.224C67.8057 289.416 68.1363 289.555 68.499 289.64C68.8723 289.715 69.2617 289.752 69.667 289.752C70.7977 289.752 71.699 289.4 72.371 288.696C73.043 287.981 73.379 286.925 73.379 285.528C73.379 285.304 73.3683 285.037 73.347 284.728C73.3257 284.419 73.2777 284.115 73.203 283.816L73.731 284.36C73.5817 284.851 73.331 285.267 72.979 285.608C72.6377 285.939 72.2217 286.189 71.731 286.36C71.251 286.52 70.723 286.6 70.147 286.6C69.411 286.6 68.755 286.461 68.179 286.184C67.603 285.907 67.1497 285.517 66.819 285.016C66.4883 284.504 66.323 283.901 66.323 283.208C66.323 282.483 66.4937 281.859 66.835 281.336C67.187 280.803 67.6617 280.392 68.259 280.104C68.867 279.816 69.539 279.672 70.275 279.672ZM70.339 280.968C69.859 280.968 69.4323 281.059 69.059 281.24C68.6857 281.421 68.3923 281.672 68.179 281.992C67.9763 282.312 67.875 282.696 67.875 283.144C67.875 283.805 68.1043 284.333 68.563 284.728C69.0217 285.112 69.6403 285.304 70.419 285.304C70.931 285.304 71.379 285.208 71.763 285.016C72.1577 284.824 72.4617 284.563 72.675 284.232C72.899 283.901 73.011 283.533 73.011 283.128C73.011 282.733 72.9097 282.376 72.707 282.056C72.5043 281.736 72.2057 281.475 71.811 281.272C71.4163 281.069 70.9257 280.968 70.339 280.968ZM77.3865 291.096C77.0878 291.096 76.8318 290.995 76.6185 290.792C76.4052 290.579 76.2985 290.312 76.2985 289.992C76.2985 289.672 76.4052 289.411 76.6185 289.208C76.8318 289.005 77.0878 288.904 77.3865 288.904C77.6745 288.904 77.9198 289.005 78.1225 289.208C78.3358 289.411 78.4425 289.672 78.4425 289.992C78.4425 290.312 78.3358 290.579 78.1225 290.792C77.9198 290.995 77.6745 291.096 77.3865 291.096ZM83.5875 279.672C84.6008 279.672 85.4542 279.891 86.1475 280.328C86.8515 280.765 87.3848 281.4 87.7475 282.232C88.1102 283.053 88.2915 284.061 88.2915 285.256C88.2915 286.525 88.0675 287.597 87.6195 288.472C87.1715 289.347 86.5528 290.008 85.7635 290.456C84.9742 290.904 84.0515 291.128 82.9955 291.128C82.4728 291.128 81.9662 291.075 81.4755 290.968C80.9955 290.861 80.5742 290.696 80.2115 290.472L80.8195 289.224C81.1182 289.416 81.4488 289.555 81.8115 289.64C82.1848 289.715 82.5742 289.752 82.9795 289.752C84.1102 289.752 85.0115 289.4 85.6835 288.696C86.3555 287.981 86.6915 286.925 86.6915 285.528C86.6915 285.304 86.6808 285.037 86.6595 284.728C86.6382 284.419 86.5902 284.115 86.5155 283.816L87.0435 284.36C86.8942 284.851 86.6435 285.267 86.2915 285.608C85.9502 285.939 85.5342 286.189 85.0435 286.36C84.5635 286.52 84.0355 286.6 83.4595 286.6C82.7235 286.6 82.0675 286.461 81.4915 286.184C80.9155 285.907 80.4622 285.517 80.1315 285.016C79.8008 284.504 79.6355 283.901 79.6355 283.208C79.6355 282.483 79.8062 281.859 80.1475 281.336C80.4995 280.803 80.9742 280.392 81.5715 280.104C82.1795 279.816 82.8515 279.672 83.5875 279.672ZM83.6515 280.968C83.1715 280.968 82.7448 281.059 82.3715 281.24C81.9982 281.421 81.7048 281.672 81.4915 281.992C81.2888 282.312 81.1875 282.696 81.1875 283.144C81.1875 283.805 81.4168 284.333 81.8755 284.728C82.3342 285.112 82.9528 285.304 83.7315 285.304C84.2435 285.304 84.6915 285.208 85.0755 285.016C85.4702 284.824 85.7742 284.563 85.9875 284.232C86.2115 283.901 86.3235 283.533 86.3235 283.128C86.3235 282.733 86.2222 282.376 86.0195 282.056C85.8168 281.736 85.5182 281.475 85.1235 281.272C84.7288 281.069 84.2382 280.968 83.6515 280.968ZM91.3665 291L99.0145 279.8H100.247L92.5985 291H91.3665ZM92.2625 285.816C91.7505 285.816 91.2972 285.688 90.9025 285.432C90.5078 285.176 90.1985 284.819 89.9745 284.36C89.7612 283.901 89.6545 283.368 89.6545 282.76C89.6545 282.152 89.7612 281.619 89.9745 281.16C90.1985 280.701 90.5078 280.344 90.9025 280.088C91.2972 279.832 91.7505 279.704 92.2625 279.704C92.7852 279.704 93.2385 279.832 93.6225 280.088C94.0172 280.344 94.3212 280.701 94.5345 281.16C94.7478 281.619 94.8545 282.152 94.8545 282.76C94.8545 283.368 94.7478 283.901 94.5345 284.36C94.3212 284.819 94.0172 285.176 93.6225 285.432C93.2385 285.688 92.7852 285.816 92.2625 285.816ZM92.2625 284.904C92.7532 284.904 93.1372 284.717 93.4145 284.344C93.6918 283.96 93.8305 283.432 93.8305 282.76C93.8305 282.088 93.6918 281.565 93.4145 281.192C93.1372 280.808 92.7532 280.616 92.2625 280.616C91.7825 280.616 91.3985 280.808 91.1105 281.192C90.8332 281.565 90.6945 282.088 90.6945 282.76C90.6945 283.421 90.8332 283.944 91.1105 284.328C91.3985 284.712 91.7825 284.904 92.2625 284.904ZM99.3505 291.096C98.8385 291.096 98.3852 290.968 97.9905 290.712C97.5958 290.456 97.2918 290.099 97.0785 289.64C96.8652 289.181 96.7585 288.648 96.7585 288.04C96.7585 287.432 96.8652 286.899 97.0785 286.44C97.2918 285.981 97.5958 285.624 97.9905 285.368C98.3852 285.112 98.8385 284.984 99.3505 284.984C99.8732 284.984 100.327 285.112 100.711 285.368C101.105 285.624 101.409 285.981 101.623 286.44C101.847 286.899 101.959 287.432 101.959 288.04C101.959 288.648 101.847 289.181 101.623 289.64C101.409 290.099 101.105 290.456 100.711 290.712C100.327 290.968 99.8732 291.096 99.3505 291.096ZM99.3505 290.184C99.8305 290.184 100.209 289.997 100.487 289.624C100.775 289.24 100.919 288.712 100.919 288.04C100.919 287.379 100.775 286.856 100.487 286.472C100.209 286.088 99.8305 285.896 99.3505 285.896C98.8705 285.896 98.4865 286.088 98.1985 286.472C97.9212 286.845 97.7825 287.368 97.7825 288.04C97.7825 288.712 97.9212 289.24 98.1985 289.624C98.4865 289.997 98.8705 290.184 99.3505 290.184ZM108.332 291V282.52H109.868V286.12H114.7V282.52H116.236V291H114.7V287.448H109.868V291H108.332ZM124.422 291V289.208L124.342 288.872V285.816C124.342 285.165 124.15 284.664 123.766 284.312C123.393 283.949 122.828 283.768 122.07 283.768C121.569 283.768 121.078 283.853 120.598 284.024C120.118 284.184 119.713 284.403 119.382 284.68L118.742 283.528C119.18 283.176 119.702 282.909 120.31 282.728C120.929 282.536 121.574 282.44 122.246 282.44C123.409 282.44 124.305 282.723 124.934 283.288C125.564 283.853 125.878 284.717 125.878 285.88V291H124.422ZM121.638 291.096C121.009 291.096 120.454 290.989 119.974 290.776C119.505 290.563 119.142 290.269 118.886 289.896C118.63 289.512 118.502 289.08 118.502 288.6C118.502 288.141 118.609 287.725 118.822 287.352C119.046 286.979 119.404 286.68 119.894 286.456C120.396 286.232 121.068 286.12 121.91 286.12H124.598V287.224H121.974C121.206 287.224 120.689 287.352 120.422 287.608C120.156 287.864 120.022 288.173 120.022 288.536C120.022 288.952 120.188 289.288 120.518 289.544C120.849 289.789 121.308 289.912 121.894 289.912C122.47 289.912 122.972 289.784 123.398 289.528C123.836 289.272 124.15 288.899 124.342 288.408L124.646 289.464C124.444 289.965 124.086 290.365 123.574 290.664C123.062 290.952 122.417 291.096 121.638 291.096ZM134.436 290.28V283.864H130.756L130.676 285.496C130.655 286.029 130.618 286.547 130.564 287.048C130.522 287.539 130.447 287.992 130.34 288.408C130.244 288.824 130.1 289.165 129.908 289.432C129.716 289.699 129.46 289.864 129.14 289.928L127.62 289.656C127.951 289.667 128.218 289.56 128.42 289.336C128.623 289.101 128.778 288.781 128.884 288.376C129.002 287.971 129.087 287.512 129.14 287C129.194 286.477 129.236 285.939 129.268 285.384L129.396 282.52H135.972V290.28H134.436ZM127.284 292.968V289.656H137.268V292.968H135.828V291H128.74V292.968H127.284ZM139.269 291V282.52H140.805V291H139.269ZM140.037 280.888C139.739 280.888 139.488 280.792 139.285 280.6C139.093 280.408 138.997 280.173 138.997 279.896C138.997 279.608 139.093 279.368 139.285 279.176C139.488 278.984 139.739 278.888 140.037 278.888C140.336 278.888 140.581 278.984 140.773 279.176C140.976 279.357 141.077 279.587 141.077 279.864C141.077 280.152 140.981 280.397 140.789 280.6C140.597 280.792 140.347 280.888 140.037 280.888ZM143.801 291V282.52H145.337V288.696L150.536 282.52H151.929V291H150.392V284.824L145.209 291H143.801ZM147.769 281.416C146.99 281.416 146.377 281.229 145.929 280.856C145.491 280.472 145.267 279.923 145.257 279.208H146.297C146.307 279.613 146.441 279.933 146.697 280.168C146.963 280.403 147.315 280.52 147.753 280.52C148.19 280.52 148.542 280.403 148.809 280.168C149.075 279.933 149.214 279.613 149.225 279.208H150.297C150.286 279.923 150.057 280.472 149.609 280.856C149.161 281.229 148.547 281.416 147.769 281.416ZM154.91 291V282.52H156.446V286.12H161.278V282.52H162.814V291H161.278V287.448H156.446V291H154.91ZM165.801 291V282.52H167.337V291H165.801ZM166.569 280.888C166.27 280.888 166.019 280.792 165.817 280.6C165.625 280.408 165.529 280.173 165.529 279.896C165.529 279.608 165.625 279.368 165.817 279.176C166.019 278.984 166.27 278.888 166.569 278.888C166.867 278.888 167.113 278.984 167.305 279.176C167.507 279.357 167.609 279.587 167.609 279.864C167.609 280.152 167.513 280.397 167.321 280.6C167.129 280.792 166.878 280.888 166.569 280.888ZM174.028 291.096C173.164 291.096 172.39 290.909 171.708 290.536C171.036 290.163 170.508 289.651 170.124 289C169.74 288.349 169.548 287.603 169.548 286.76C169.548 285.917 169.74 285.171 170.124 284.52C170.508 283.869 171.036 283.363 171.708 283C172.39 282.627 173.164 282.44 174.028 282.44C174.796 282.44 175.478 282.595 176.076 282.904C176.684 283.203 177.153 283.651 177.484 284.248L176.316 285C176.038 284.584 175.697 284.28 175.292 284.088C174.897 283.885 174.47 283.784 174.012 283.784C173.457 283.784 172.961 283.907 172.524 284.152C172.086 284.397 171.74 284.744 171.484 285.192C171.228 285.629 171.1 286.152 171.1 286.76C171.1 287.368 171.228 287.896 171.484 288.344C171.74 288.792 172.086 289.139 172.524 289.384C172.961 289.629 173.457 289.752 174.012 289.752C174.47 289.752 174.897 289.656 175.292 289.464C175.697 289.261 176.038 288.952 176.316 288.536L177.484 289.272C177.153 289.859 176.684 290.312 176.076 290.632C175.478 290.941 174.796 291.096 174.028 291.096ZM181.043 291V283.464L181.427 283.864H177.939V282.52H185.683V283.864H182.211L182.579 283.464V291H181.043ZM191.174 285.4C192.251 285.411 193.072 285.656 193.638 286.136C194.203 286.616 194.486 287.293 194.486 288.168C194.486 289.085 194.176 289.795 193.558 290.296C192.939 290.787 192.064 291.027 190.934 291.016L187.254 291V282.52H188.79V285.384L191.174 285.4ZM190.806 289.848C191.499 289.859 192.022 289.72 192.374 289.432C192.736 289.144 192.918 288.717 192.918 288.152C192.918 287.597 192.742 287.192 192.39 286.936C192.038 286.68 191.51 286.547 190.806 286.536L188.79 286.504V289.832L190.806 289.848Z" fill="#060606"/>
<defs>
<linearGradient id="paint0_linear_13_211" x1="175" y1="0" x2="175" y2="290" gradientUnits="userSpaceOnUse">
<stop stop-color="#002346" stop-opacity="0.89"/>
<stop offset="0.504808" stop-color="#0056AC"/>
</linearGradient>
<linearGradient id="paint1_linear_13_211" x1="175" y1="76" x2="175" y2="307" gradientUnits="userSpaceOnUse">
<stop stop-opacity="0.8"/>
<stop offset="0.682692" stop-color="#666666"/>
</linearGradient>
<linearGradient id="paint2_linear_13_211" x1="175" y1="152" x2="175" y2="303" gradientUnits="userSpaceOnUse">
<stop stop-color="#223737"/>
<stop offset="0.466346" stop-color="#35342F" stop-opacity="0.7"/>
</linearGradient>
<linearGradient id="paint3_linear_13_211" x1="0" y1="268" x2="350" y2="268" gradientUnits="userSpaceOnUse">
<stop stop-color="#808183"/>
<stop offset="1" stop-color="#E4E5E9"/>
</linearGradient>
</defs>
</svg>
